<?xml version="1.0" encoding="UTF-8" standalone="no"?>
<!DOCTYPE svg PUBLIC "-//W3C//DTD SVG 1.1//EN" "http://www.w3.org/Graphics/SVG/1.1/DTD/svg11.dtd">
<svg width="100%" height="100%" viewBox="0 0 4445 4445" version="1.1" xmlns="http://www.w3.org/2000/svg" xmlns:xlink="http://www.w3.org/1999/xlink" xml:space="preserve" xmlns:serif="http://www.serif.com/" style="fill-rule:evenodd;clip-rule:evenodd;stroke-linejoin:round;stroke-miterlimit:2;">
    <g transform="matrix(5.55556,0,0,5.55556,0,0)">
        <rect x="0" y="0" width="800" height="800" style="fill:none;"/>
        <path d="M531,569.667C525.18,574.782 516.681,575.591 510,571.667C489.416,555.052 472.022,534.834 458.667,512C422.855,556.01 367.982,580.219 311.333,577C308.906,577.14 306.475,577.21 304.044,577.21C234.557,577.21 177.377,520.031 177.377,450.543C177.377,446.354 177.585,442.168 178,438C175.782,374.338 213.897,315.761 273,292C326.851,273.998 382.944,263.564 439.667,261L439.667,250C442.821,227.18 438.985,203.931 428.667,183.333C416.824,167.867 398.128,159.142 378.667,160C344.766,157.621 314.197,181.526 308.333,215C306.993,223.142 300.746,229.655 292.667,231.333L206,222C198.229,220.991 192.351,214.3 192.351,206.464C192.351,205.412 192.457,204.364 192.667,203.333C212.667,100 307.667,66.667 392.667,66.667C440.955,65.131 488.245,80.855 526,111C570.333,151.667 566.667,206 566.667,266.667L566.667,405.667C566.752,436.469 578.695,466.087 600,488.333C605.667,496.667 607,506.333 600,512L531.333,571.333M441.333,353.667L441.333,333.333C376.667,333.333 308,346.333 308,422.333C308,461 328.333,487.333 362.333,487.333C388.823,486.065 412.617,470.458 424.333,446.667C438.497,417.25 444.265,384.485 441,352M672,652C592.657,705.476 499.013,733.825 403.333,733.333C282.129,733.943 164.969,689.22 75,608C68.333,602 75,593.667 83.333,598.333C183.038,655.539 296.05,685.545 411,685.333C497.044,684.578 582.106,666.908 661.333,633.333C673.667,628 683.333,641.333 672,650.333M702.333,617C693,605 640.667,611.333 616.667,614.333C610.333,614.333 609.333,609 616.667,604.333C651.558,582.363 694.866,578.156 733.333,593C738.301,634.373 722.873,675.68 692,703.667C686,709 680.333,706 683.333,700C692,677.667 711.667,628.667 702.333,616.667L702.333,617Z" style="fill-rule:nonzero;"/>
    </g>
</svg>
