<svg width="4252" height="1493" viewBox="0 0 4252 1493" fill="none" xmlns="http://www.w3.org/2000/svg">
<mask id="path-1-inside-1_3629_34" fill="white">
<rect width="4252" height="330" rx="5"/>
</mask>
<rect width="4252" height="330" rx="5" fill="#0284C7" stroke="#F6F6F6" stroke-width="20" mask="url(#path-1-inside-1_3629_34)"/>
<path d="M2011.3 149.574H1998C1997.49 146.733 1996.54 144.233 1995.15 142.074C1993.76 139.915 1992.05 138.082 1990.03 136.577C1988.02 135.071 1985.76 133.935 1983.26 133.168C1980.79 132.401 1978.16 132.017 1975.38 132.017C1970.35 132.017 1965.84 133.281 1961.87 135.81C1957.92 138.338 1954.79 142.045 1952.49 146.932C1950.22 151.818 1949.08 157.784 1949.08 164.83C1949.08 171.932 1950.22 177.926 1952.49 182.813C1954.79 187.699 1957.93 191.392 1961.91 193.892C1965.89 196.392 1970.36 197.642 1975.33 197.642C1978.09 197.642 1980.7 197.273 1983.17 196.534C1985.67 195.767 1987.93 194.645 1989.95 193.168C1991.97 191.69 1993.67 189.886 1995.06 187.756C1996.48 185.597 1997.46 183.125 1998 180.341L2011.3 180.384C2010.59 184.673 2009.21 188.622 2007.16 192.23C2005.15 195.81 2002.55 198.906 1999.37 201.52C1996.21 204.105 1992.61 206.108 1988.54 207.528C1984.48 208.949 1980.05 209.659 1975.25 209.659C1967.69 209.659 1960.96 207.869 1955.05 204.29C1949.14 200.682 1944.48 195.526 1941.07 188.821C1937.69 182.117 1936 174.119 1936 164.83C1936 155.511 1937.7 147.514 1941.11 140.838C1944.52 134.134 1949.18 128.992 1955.09 125.412C1961 121.804 1967.72 120 1975.25 120C1979.88 120 1984.2 120.668 1988.2 122.003C1992.24 123.31 1995.86 125.241 1999.07 127.798C2002.28 130.327 2004.93 133.423 2007.04 137.088C2009.14 140.724 2010.56 144.886 2011.3 149.574ZM2053.6 209.787C2047.47 209.787 2042.11 208.381 2037.54 205.568C2032.96 202.756 2029.41 198.821 2026.88 193.764C2024.36 188.707 2023.09 182.798 2023.09 176.037C2023.09 169.247 2024.36 163.31 2026.88 158.224C2029.41 153.139 2032.96 149.19 2037.54 146.378C2042.11 143.565 2047.47 142.159 2053.6 142.159C2059.74 142.159 2065.09 143.565 2069.67 146.378C2074.24 149.19 2077.79 153.139 2080.32 158.224C2082.85 163.31 2084.11 169.247 2084.11 176.037C2084.11 182.798 2082.85 188.707 2080.32 193.764C2077.79 198.821 2074.24 202.756 2069.67 205.568C2065.09 208.381 2059.74 209.787 2053.6 209.787ZM2053.65 199.091C2057.62 199.091 2060.92 198.04 2063.53 195.938C2066.15 193.835 2068.08 191.037 2069.33 187.543C2070.61 184.048 2071.25 180.199 2071.25 175.994C2071.25 171.818 2070.61 167.983 2069.33 164.489C2068.08 160.966 2066.15 158.139 2063.53 156.009C2060.92 153.878 2057.62 152.813 2053.65 152.813C2049.64 152.813 2046.32 153.878 2043.67 156.009C2041.06 158.139 2039.11 160.966 2037.84 164.489C2036.59 167.983 2035.96 171.818 2035.96 175.994C2035.96 180.199 2036.59 184.048 2037.84 187.543C2039.11 191.037 2041.06 193.835 2043.67 195.938C2046.32 198.04 2049.64 199.091 2053.65 199.091ZM2139.8 181.321V143.011H2152.58V208.466H2140.06V197.131H2139.37C2137.87 200.625 2135.45 203.537 2132.13 205.867C2128.83 208.168 2124.73 209.318 2119.81 209.318C2115.61 209.318 2111.89 208.395 2108.65 206.548C2105.44 204.673 2102.91 201.903 2101.06 198.239C2099.25 194.574 2098.34 190.043 2098.34 184.645V143.011H2111.08V183.111C2111.08 187.571 2112.31 191.122 2114.79 193.764C2117.26 196.406 2120.47 197.727 2124.42 197.727C2126.8 197.727 2129.17 197.131 2131.53 195.938C2133.92 194.744 2135.89 192.94 2137.46 190.526C2139.05 188.111 2139.83 185.043 2139.8 181.321ZM2169.7 208.466V143.011H2182.02V153.409H2182.7C2183.89 149.886 2186 147.117 2189.01 145.099C2192.05 143.054 2195.49 142.031 2199.32 142.031C2200.12 142.031 2201.05 142.06 2202.13 142.117C2203.24 142.173 2204.11 142.244 2204.73 142.33V154.517C2204.22 154.375 2203.31 154.219 2202.01 154.048C2200.7 153.849 2199.39 153.75 2198.08 153.75C2195.07 153.75 2192.39 154.389 2190.03 155.668C2187.7 156.918 2185.85 158.665 2184.49 160.909C2183.13 163.125 2182.45 165.653 2182.45 168.494V208.466H2169.7ZM2264.81 158.992L2253.26 161.037C2252.78 159.56 2252.01 158.153 2250.96 156.818C2249.93 155.483 2248.54 154.389 2246.78 153.537C2245.02 152.685 2242.82 152.259 2240.18 152.259C2236.57 152.259 2233.56 153.068 2231.14 154.688C2228.73 156.278 2227.52 158.338 2227.52 160.867C2227.52 163.054 2228.33 164.815 2229.95 166.151C2231.57 167.486 2234.18 168.58 2237.79 169.432L2248.19 171.818C2254.21 173.21 2258.7 175.355 2261.65 178.253C2264.61 181.151 2266.09 184.915 2266.09 189.545C2266.09 193.466 2264.95 196.96 2262.68 200.028C2260.43 203.068 2257.29 205.455 2253.26 207.188C2249.25 208.92 2244.61 209.787 2239.32 209.787C2231.99 209.787 2226.01 208.224 2221.38 205.099C2216.75 201.946 2213.91 197.472 2212.86 191.676L2225.18 189.801C2225.94 193.011 2227.52 195.44 2229.91 197.088C2232.29 198.707 2235.4 199.517 2239.24 199.517C2243.41 199.517 2246.75 198.651 2249.25 196.918C2251.75 195.156 2253 193.011 2253 190.483C2253 188.438 2252.24 186.719 2250.7 185.327C2249.2 183.935 2246.88 182.884 2243.76 182.173L2232.68 179.744C2226.57 178.352 2222.05 176.136 2219.13 173.097C2216.23 170.057 2214.78 166.207 2214.78 161.548C2214.78 157.685 2215.86 154.304 2218.02 151.406C2220.18 148.509 2223.16 146.25 2226.97 144.631C2230.77 142.983 2235.13 142.159 2240.05 142.159C2247.12 142.159 2252.69 143.693 2256.75 146.761C2260.82 149.801 2263.5 153.878 2264.81 158.992ZM2308.3 209.787C2301.86 209.787 2296.3 208.409 2291.64 205.653C2287.01 202.869 2283.43 198.963 2280.9 193.935C2278.4 188.878 2277.15 182.955 2277.15 176.165C2277.15 169.46 2278.4 163.551 2280.9 158.438C2283.43 153.324 2286.96 149.332 2291.47 146.463C2296.02 143.594 2301.33 142.159 2307.41 142.159C2311.1 142.159 2314.68 142.77 2318.15 143.992C2321.61 145.213 2324.73 147.131 2327.48 149.744C2330.24 152.358 2332.41 155.753 2334 159.929C2335.59 164.077 2336.39 169.119 2336.39 175.057V179.574H2284.36V170.028H2323.9C2323.9 166.676 2323.22 163.707 2321.86 161.122C2320.49 158.509 2318.57 156.449 2316.1 154.943C2313.66 153.438 2310.79 152.685 2307.5 152.685C2303.92 152.685 2300.79 153.565 2298.12 155.327C2295.48 157.06 2293.43 159.332 2291.98 162.145C2290.56 164.929 2289.85 167.955 2289.85 171.222V178.679C2289.85 183.054 2290.62 186.776 2292.15 189.844C2293.72 192.912 2295.89 195.256 2298.67 196.875C2301.46 198.466 2304.71 199.261 2308.43 199.261C2310.85 199.261 2313.05 198.92 2315.04 198.239C2317.03 197.528 2318.75 196.477 2320.19 195.085C2321.64 193.693 2322.75 191.974 2323.52 189.929L2335.58 192.102C2334.61 195.653 2332.88 198.764 2330.38 201.435C2327.91 204.077 2324.8 206.136 2321.05 207.614C2317.32 209.063 2313.08 209.787 2308.3 209.787Z" fill="white"/>
<mask id="path-3-inside-2_3629_34" fill="white">
<rect y="403" width="750" height="330" rx="5"/>
</mask>
<rect y="403" width="750" height="330" rx="5" fill="#0284C7" stroke="#F6F6F6" stroke-width="20" mask="url(#path-3-inside-2_3629_34)"/>
<path d="M166 525.335V514H233.543V525.335H206.313V601.273H193.188V525.335H166ZM260.187 562.409V601.273H247.445V514H260.016V546.472H260.826C262.36 542.949 264.704 540.151 267.857 538.077C271.011 536.003 275.13 534.966 280.215 534.966C284.704 534.966 288.624 535.889 291.977 537.736C295.357 539.582 297.971 542.338 299.818 546.003C301.693 549.639 302.63 554.185 302.63 559.639V601.273H289.889V561.173C289.889 556.372 288.653 552.651 286.181 550.009C283.71 547.338 280.272 546.003 275.869 546.003C272.857 546.003 270.158 546.642 267.772 547.92C265.414 549.199 263.553 551.074 262.19 553.545C260.854 555.989 260.187 558.943 260.187 562.409ZM347.843 602.594C341.394 602.594 335.84 601.216 331.181 598.46C326.551 595.676 322.971 591.77 320.443 586.742C317.943 581.685 316.693 575.761 316.693 568.972C316.693 562.267 317.943 556.358 320.443 551.244C322.971 546.131 326.494 542.139 331.011 539.27C335.556 536.401 340.869 534.966 346.948 534.966C350.641 534.966 354.221 535.577 357.687 536.798C361.153 538.02 364.264 539.938 367.019 542.551C369.775 545.165 371.948 548.56 373.539 552.736C375.13 556.884 375.926 561.926 375.926 567.864V572.381H323.894V562.835H363.44C363.44 559.483 362.758 556.514 361.394 553.929C360.031 551.315 358.113 549.256 355.641 547.75C353.198 546.244 350.329 545.492 347.033 545.492C343.454 545.492 340.329 546.372 337.658 548.134C335.016 549.866 332.971 552.139 331.522 554.952C330.102 557.736 329.391 560.761 329.391 564.028V571.486C329.391 575.861 330.158 579.582 331.693 582.651C333.255 585.719 335.428 588.063 338.212 589.682C340.997 591.273 344.249 592.068 347.971 592.068C350.386 592.068 352.587 591.727 354.576 591.045C356.565 590.335 358.283 589.284 359.732 587.892C361.181 586.5 362.289 584.781 363.056 582.736L375.116 584.909C374.15 588.46 372.417 591.571 369.917 594.242C367.445 596.884 364.335 598.943 360.585 600.42C356.863 601.869 352.616 602.594 347.843 602.594ZM417.634 602.594C411.497 602.594 406.142 601.188 401.568 598.375C396.994 595.563 393.443 591.628 390.915 586.571C388.386 581.514 387.122 575.605 387.122 568.844C387.122 562.054 388.386 556.116 390.915 551.031C393.443 545.946 396.994 541.997 401.568 539.185C406.142 536.372 411.497 534.966 417.634 534.966C423.77 534.966 429.125 536.372 433.699 539.185C438.273 541.997 441.824 545.946 444.352 551.031C446.881 556.116 448.145 562.054 448.145 568.844C448.145 575.605 446.881 581.514 444.352 586.571C441.824 591.628 438.273 595.563 433.699 598.375C429.125 601.188 423.77 602.594 417.634 602.594ZM417.676 591.898C421.654 591.898 424.949 590.847 427.563 588.744C430.176 586.642 432.108 583.844 433.358 580.349C434.636 576.855 435.276 573.006 435.276 568.801C435.276 564.625 434.636 560.79 433.358 557.295C432.108 553.773 430.176 550.946 427.563 548.815C424.949 546.685 421.654 545.619 417.676 545.619C413.671 545.619 410.347 546.685 407.705 548.815C405.091 550.946 403.145 553.773 401.867 557.295C400.617 560.79 399.992 564.625 399.992 568.801C399.992 573.006 400.617 576.855 401.867 580.349C403.145 583.844 405.091 586.642 407.705 588.744C410.347 590.847 413.671 591.898 417.676 591.898ZM462.367 601.273V535.818H474.683V546.216H475.364C476.558 542.693 478.66 539.923 481.671 537.906C484.711 535.861 488.149 534.838 491.984 534.838C492.779 534.838 493.717 534.866 494.796 534.923C495.904 534.98 496.771 535.051 497.396 535.136V547.324C496.884 547.182 495.975 547.026 494.668 546.855C493.362 546.656 492.055 546.557 490.748 546.557C487.737 546.557 485.052 547.196 482.694 548.474C480.364 549.724 478.518 551.472 477.154 553.716C475.791 555.932 475.109 558.46 475.109 561.301V601.273H462.367ZM518.468 625.818C516.565 625.818 514.832 625.662 513.269 625.35C511.707 625.066 510.542 624.753 509.775 624.412L512.843 613.972C515.173 614.597 517.247 614.867 519.065 614.782C520.883 614.696 522.488 614.014 523.88 612.736C525.301 611.458 526.551 609.369 527.63 606.472L529.207 602.125L505.258 535.818H518.894L535.471 586.614H536.153L552.729 535.818H566.408L539.434 610.009C538.184 613.418 536.593 616.301 534.661 618.659C532.729 621.046 530.428 622.836 527.758 624.029C525.087 625.222 521.991 625.818 518.468 625.818Z" fill="white"/>
<mask id="path-5-inside-3_3629_34" fill="white">
<rect y="783" width="750" height="330" rx="5"/>
</mask>
<rect y="783" width="750" height="330" rx="5" fill="#38BDF8" stroke="#F6F6F6" stroke-width="20" mask="url(#path-5-inside-3_3629_34)"/>
<path d="M215 912.83V901.494H282.543V912.83H255.313V988.767H242.188V912.83H215ZM314.524 990.088C308.388 990.088 303.033 988.682 298.459 985.869C293.885 983.057 290.334 979.122 287.805 974.065C285.277 969.009 284.013 963.099 284.013 956.338C284.013 949.548 285.277 943.611 287.805 938.526C290.334 933.44 293.885 929.491 298.459 926.679C303.033 923.866 308.388 922.46 314.524 922.46C320.661 922.46 326.016 923.866 330.59 926.679C335.163 929.491 338.715 933.44 341.243 938.526C343.771 943.611 345.036 949.548 345.036 956.338C345.036 963.099 343.771 969.009 341.243 974.065C338.715 979.122 335.163 983.057 330.59 985.869C326.016 988.682 320.661 990.088 314.524 990.088ZM314.567 979.392C318.544 979.392 321.84 978.341 324.453 976.239C327.067 974.136 328.999 971.338 330.249 967.844C331.527 964.349 332.166 960.5 332.166 956.295C332.166 952.119 331.527 948.284 330.249 944.79C328.999 941.267 327.067 938.44 324.453 936.31C321.84 934.179 318.544 933.114 314.567 933.114C310.561 933.114 307.237 934.179 304.595 936.31C301.982 938.44 300.036 941.267 298.757 944.79C297.507 948.284 296.882 952.119 296.882 956.295C296.882 960.5 297.507 964.349 298.757 967.844C300.036 971.338 301.982 974.136 304.595 976.239C307.237 978.341 310.561 979.392 314.567 979.392ZM359.258 1013.31V923.313H371.701V933.923H372.766C373.505 932.56 374.57 930.983 375.962 929.193C377.354 927.403 379.286 925.841 381.758 924.506C384.229 923.142 387.497 922.46 391.559 922.46C396.843 922.46 401.559 923.795 405.707 926.466C409.854 929.136 413.107 932.986 415.465 938.014C417.852 943.043 419.045 949.094 419.045 956.168C419.045 963.241 417.866 969.307 415.508 974.364C413.15 979.392 409.911 983.27 405.792 985.997C401.673 988.696 396.971 990.045 391.687 990.045C387.71 990.045 384.457 989.378 381.928 988.043C379.428 986.707 377.468 985.145 376.048 983.355C374.627 981.565 373.533 979.974 372.766 978.582H371.999V1013.31H359.258ZM371.744 956.04C371.744 960.642 372.411 964.676 373.747 968.142C375.082 971.608 377.014 974.321 379.542 976.281C382.07 978.213 385.167 979.179 388.832 979.179C392.639 979.179 395.82 978.17 398.377 976.153C400.934 974.108 402.866 971.338 404.173 967.844C405.508 964.349 406.176 960.415 406.176 956.04C406.176 951.722 405.522 947.844 404.215 944.406C402.937 940.969 401.005 938.256 398.42 936.267C395.863 934.278 392.667 933.284 388.832 933.284C385.139 933.284 382.014 934.236 379.457 936.139C376.928 938.043 375.011 940.699 373.704 944.108C372.397 947.517 371.744 951.494 371.744 956.04ZM433.32 988.767V923.313H446.062V988.767H433.32ZM439.755 913.213C437.539 913.213 435.636 912.474 434.045 910.997C432.482 909.491 431.701 907.702 431.701 905.628C431.701 903.526 432.482 901.736 434.045 900.259C435.636 898.753 437.539 898 439.755 898C441.971 898 443.86 898.753 445.423 900.259C447.014 901.736 447.809 903.526 447.809 905.628C447.809 907.702 447.014 909.491 445.423 910.997C443.86 912.474 441.971 913.213 439.755 913.213ZM490.774 990.088C484.439 990.088 478.984 988.653 474.411 985.784C469.865 982.886 466.371 978.895 463.928 973.81C461.484 968.724 460.263 962.901 460.263 956.338C460.263 949.69 461.513 943.824 464.013 938.739C466.513 933.625 470.036 929.634 474.581 926.764C479.127 923.895 484.482 922.46 490.646 922.46C495.618 922.46 500.05 923.384 503.942 925.23C507.834 927.048 510.973 929.605 513.359 932.901C515.774 936.196 517.209 940.045 517.663 944.449H505.263C504.581 941.381 503.019 938.739 500.575 936.523C498.161 934.307 494.922 933.199 490.859 933.199C487.308 933.199 484.198 934.136 481.527 936.011C478.885 937.858 476.825 940.5 475.348 943.938C473.871 947.347 473.132 951.381 473.132 956.04C473.132 960.813 473.857 964.932 475.305 968.398C476.754 971.864 478.8 974.548 481.442 976.452C484.112 978.355 487.252 979.307 490.859 979.307C493.274 979.307 495.462 978.866 497.422 977.986C499.411 977.077 501.073 975.784 502.408 974.108C503.771 972.432 504.723 970.415 505.263 968.057H517.663C517.209 972.29 515.831 976.068 513.53 979.392C511.229 982.716 508.146 985.33 504.283 987.233C500.448 989.136 495.945 990.088 490.774 990.088Z" fill="white"/>
<mask id="path-7-inside-4_3629_34" fill="white">
<rect y="1163" width="750" height="330" rx="5"/>
</mask>
<rect y="1163" width="750" height="330" rx="5" fill="#38BDF8" stroke="#F6F6F6" stroke-width="20" mask="url(#path-7-inside-4_3629_34)"/>
<path d="M170 1370.27V1283H183.168V1358.94H222.713V1370.27H170ZM264.922 1371.59C258.473 1371.59 252.919 1370.22 248.26 1367.46C243.629 1364.68 240.05 1360.77 237.521 1355.74C235.021 1350.68 233.771 1344.76 233.771 1337.97C233.771 1331.27 235.021 1325.36 237.521 1320.24C240.05 1315.13 243.572 1311.14 248.09 1308.27C252.635 1305.4 257.947 1303.97 264.027 1303.97C267.72 1303.97 271.3 1304.58 274.766 1305.8C278.232 1307.02 281.342 1308.94 284.098 1311.55C286.854 1314.16 289.027 1317.56 290.618 1321.74C292.209 1325.88 293.004 1330.93 293.004 1336.86V1341.38H240.973V1331.84H280.519C280.519 1328.48 279.837 1325.51 278.473 1322.93C277.109 1320.32 275.192 1318.26 272.72 1316.75C270.277 1315.24 267.408 1314.49 264.112 1314.49C260.533 1314.49 257.408 1315.37 254.737 1317.13C252.095 1318.87 250.05 1321.14 248.601 1323.95C247.18 1326.74 246.47 1329.76 246.47 1333.03V1340.49C246.47 1344.86 247.237 1348.58 248.771 1351.65C250.334 1354.72 252.507 1357.06 255.291 1358.68C258.075 1360.27 261.328 1361.07 265.05 1361.07C267.465 1361.07 269.666 1360.73 271.655 1360.05C273.644 1359.34 275.362 1358.28 276.811 1356.89C278.26 1355.5 279.368 1353.78 280.135 1351.74L292.195 1353.91C291.229 1357.46 289.496 1360.57 286.996 1363.24C284.524 1365.88 281.413 1367.94 277.663 1369.42C273.942 1370.87 269.695 1371.59 264.922 1371.59ZM356.19 1320.8L344.641 1322.84C344.158 1321.37 343.391 1319.96 342.34 1318.63C341.318 1317.29 339.925 1316.2 338.164 1315.34C336.403 1314.49 334.201 1314.07 331.559 1314.07C327.951 1314.07 324.94 1314.88 322.525 1316.49C320.11 1318.09 318.903 1320.14 318.903 1322.67C318.903 1324.86 319.712 1326.62 321.332 1327.96C322.951 1329.29 325.565 1330.39 329.173 1331.24L339.57 1333.63C345.593 1335.02 350.082 1337.16 353.036 1340.06C355.991 1342.96 357.468 1346.72 357.468 1351.35C357.468 1355.27 356.332 1358.77 354.059 1361.84C351.815 1364.88 348.675 1367.26 344.641 1368.99C340.636 1370.73 335.991 1371.59 330.707 1371.59C323.377 1371.59 317.397 1370.03 312.766 1366.91C308.136 1363.75 305.295 1359.28 304.244 1353.48L316.559 1351.61C317.326 1354.82 318.903 1357.25 321.289 1358.89C323.675 1360.51 326.786 1361.32 330.622 1361.32C334.798 1361.32 338.136 1360.46 340.636 1358.72C343.136 1356.96 344.386 1354.82 344.386 1352.29C344.386 1350.24 343.619 1348.53 342.085 1347.13C340.579 1345.74 338.264 1344.69 335.139 1343.98L324.059 1341.55C317.951 1340.16 313.434 1337.94 310.508 1334.9C307.61 1331.86 306.161 1328.01 306.161 1323.36C306.161 1319.49 307.241 1316.11 309.4 1313.21C311.559 1310.32 314.542 1308.06 318.349 1306.44C322.156 1304.79 326.516 1303.97 331.431 1303.97C338.505 1303.97 344.073 1305.5 348.136 1308.57C352.198 1311.61 354.883 1315.68 356.19 1320.8ZM420.526 1320.8L408.977 1322.84C408.494 1321.37 407.727 1319.96 406.676 1318.63C405.653 1317.29 404.261 1316.2 402.5 1315.34C400.739 1314.49 398.537 1314.07 395.895 1314.07C392.287 1314.07 389.276 1314.88 386.861 1316.49C384.446 1318.09 383.239 1320.14 383.239 1322.67C383.239 1324.86 384.048 1326.62 385.668 1327.96C387.287 1329.29 389.901 1330.39 393.509 1331.24L403.906 1333.63C409.929 1335.02 414.418 1337.16 417.372 1340.06C420.327 1342.96 421.804 1346.72 421.804 1351.35C421.804 1355.27 420.668 1358.77 418.395 1361.84C416.151 1364.88 413.011 1367.26 408.977 1368.99C404.972 1370.73 400.327 1371.59 395.043 1371.59C387.713 1371.59 381.733 1370.03 377.102 1366.91C372.472 1363.75 369.631 1359.28 368.58 1353.48L380.895 1351.61C381.662 1354.82 383.239 1357.25 385.625 1358.89C388.011 1360.51 391.122 1361.32 394.957 1361.32C399.134 1361.32 402.472 1360.46 404.972 1358.72C407.472 1356.96 408.722 1354.82 408.722 1352.29C408.722 1350.24 407.955 1348.53 406.421 1347.13C404.915 1345.74 402.6 1344.69 399.474 1343.98L388.395 1341.55C382.287 1340.16 377.77 1337.94 374.844 1334.9C371.946 1331.86 370.497 1328.01 370.497 1323.36C370.497 1319.49 371.577 1316.11 373.736 1313.21C375.895 1310.32 378.878 1308.06 382.685 1306.44C386.492 1304.79 390.852 1303.97 395.767 1303.97C402.841 1303.97 408.409 1305.5 412.472 1308.57C416.534 1311.61 419.219 1315.68 420.526 1320.8ZM463.384 1371.59C457.248 1371.59 451.893 1370.19 447.319 1367.38C442.745 1364.56 439.194 1360.63 436.666 1355.57C434.137 1350.51 432.873 1344.61 432.873 1337.84C432.873 1331.05 434.137 1325.12 436.666 1320.03C439.194 1314.95 442.745 1311 447.319 1308.18C451.893 1305.37 457.248 1303.97 463.384 1303.97C469.521 1303.97 474.876 1305.37 479.45 1308.18C484.024 1311 487.575 1314.95 490.103 1320.03C492.631 1325.12 493.896 1331.05 493.896 1337.84C493.896 1344.61 492.631 1350.51 490.103 1355.57C487.575 1360.63 484.024 1364.56 479.45 1367.38C474.876 1370.19 469.521 1371.59 463.384 1371.59ZM463.427 1360.9C467.404 1360.9 470.7 1359.85 473.313 1357.74C475.927 1355.64 477.859 1352.84 479.109 1349.35C480.387 1345.86 481.026 1342.01 481.026 1337.8C481.026 1333.63 480.387 1329.79 479.109 1326.3C477.859 1322.77 475.927 1319.95 473.313 1317.82C470.7 1315.68 467.404 1314.62 463.427 1314.62C459.421 1314.62 456.097 1315.68 453.455 1317.82C450.842 1319.95 448.896 1322.77 447.617 1326.3C446.367 1329.79 445.742 1333.63 445.742 1337.8C445.742 1342.01 446.367 1345.86 447.617 1349.35C448.896 1352.84 450.842 1355.64 453.455 1357.74C456.097 1359.85 459.421 1360.9 463.427 1360.9ZM520.859 1331.41V1370.27H508.118V1304.82H520.348V1315.47H521.158C522.663 1312.01 525.021 1309.22 528.232 1307.12C531.47 1305.02 535.547 1303.97 540.462 1303.97C544.922 1303.97 548.828 1304.9 552.18 1306.78C555.533 1308.63 558.132 1311.38 559.979 1315.05C561.825 1318.71 562.749 1323.24 562.749 1328.64V1370.27H550.007V1330.17C550.007 1325.43 548.771 1321.72 546.3 1319.05C543.828 1316.35 540.433 1315 536.115 1315C533.161 1315 530.533 1315.64 528.232 1316.92C525.959 1318.2 524.155 1320.07 522.82 1322.55C521.513 1324.99 520.859 1327.94 520.859 1331.41Z" fill="white"/>
<mask id="path-9-inside-5_3629_34" fill="white">
<rect x="3502" y="403" width="750" height="1090" rx="5"/>
</mask>
<rect x="3502" y="403" width="750" height="1090" rx="5" fill="#0284C7" stroke="#F6F6F6" stroke-width="20" mask="url(#path-9-inside-5_3629_34)"/>
<path d="M3820 991.273V904H3851.96C3858.15 904 3863.28 905.023 3867.34 907.068C3871.41 909.085 3874.45 911.827 3876.46 915.293C3878.48 918.73 3879.49 922.608 3879.49 926.926C3879.49 930.563 3878.82 933.631 3877.49 936.131C3876.15 938.602 3874.36 940.591 3872.12 942.097C3869.9 943.574 3867.46 944.653 3864.79 945.335V946.188C3867.68 946.33 3870.51 947.267 3873.27 949C3876.05 950.705 3878.35 953.134 3880.17 956.287C3881.99 959.44 3882.9 963.276 3882.9 967.793C3882.9 972.253 3881.85 976.259 3879.74 979.81C3877.67 983.332 3874.46 986.131 3870.11 988.205C3865.77 990.25 3860.21 991.273 3853.45 991.273H3820ZM3833.17 979.98H3852.17C3858.48 979.98 3863 978.759 3865.72 976.315C3868.45 973.872 3869.82 970.818 3869.82 967.153C3869.82 964.398 3869.12 961.869 3867.73 959.568C3866.34 957.267 3864.35 955.435 3861.76 954.071C3859.2 952.707 3856.16 952.026 3852.64 952.026H3833.17V979.98ZM3833.17 941.756H3850.81C3853.76 941.756 3856.42 941.188 3858.78 940.051C3861.16 938.915 3863.05 937.324 3864.45 935.278C3865.87 933.205 3866.58 930.761 3866.58 927.949C3866.58 924.341 3865.31 921.315 3862.78 918.872C3860.26 916.429 3856.38 915.207 3851.15 915.207H3833.17V941.756ZM3925.06 992.594C3918.93 992.594 3913.57 991.188 3909 988.375C3904.42 985.563 3900.87 981.628 3898.35 976.571C3895.82 971.514 3894.55 965.605 3894.55 958.844C3894.55 952.054 3895.82 946.116 3898.35 941.031C3900.87 935.946 3904.42 931.997 3909 929.185C3913.57 926.372 3918.93 924.966 3925.06 924.966C3931.2 924.966 3936.55 926.372 3941.13 929.185C3945.7 931.997 3949.25 935.946 3951.78 941.031C3954.31 946.116 3955.57 952.054 3955.57 958.844C3955.57 965.605 3954.31 971.514 3951.78 976.571C3949.25 981.628 3945.7 985.563 3941.13 988.375C3936.55 991.188 3931.2 992.594 3925.06 992.594ZM3925.11 981.898C3929.08 981.898 3932.38 980.847 3934.99 978.744C3937.61 976.642 3939.54 973.844 3940.79 970.349C3942.07 966.855 3942.71 963.006 3942.71 958.801C3942.71 954.625 3942.07 950.79 3940.79 947.295C3939.54 943.773 3937.61 940.946 3934.99 938.815C3932.38 936.685 3929.08 935.619 3925.11 935.619C3921.1 935.619 3917.78 936.685 3915.13 938.815C3912.52 940.946 3910.57 943.773 3909.3 947.295C3908.05 950.79 3907.42 954.625 3907.42 958.801C3907.42 963.006 3908.05 966.855 3909.3 970.349C3910.57 973.844 3912.52 976.642 3915.13 978.744C3917.78 980.847 3921.1 981.898 3925.11 981.898ZM3997.37 992.594C3991.23 992.594 3985.88 991.188 3981.3 988.375C3976.73 985.563 3973.18 981.628 3970.65 976.571C3968.12 971.514 3966.86 965.605 3966.86 958.844C3966.86 952.054 3968.12 946.116 3970.65 941.031C3973.18 935.946 3976.73 931.997 3981.3 929.185C3985.88 926.372 3991.23 924.966 3997.37 924.966C4003.5 924.966 4008.86 926.372 4013.43 929.185C4018.01 931.997 4021.56 935.946 4024.09 941.031C4026.62 946.116 4027.88 952.054 4027.88 958.844C4027.88 965.605 4026.62 971.514 4024.09 976.571C4021.56 981.628 4018.01 985.563 4013.43 988.375C4008.86 991.188 4003.5 992.594 3997.37 992.594ZM3997.41 981.898C4001.39 981.898 4004.68 980.847 4007.3 978.744C4009.91 976.642 4011.84 973.844 4013.09 970.349C4014.37 966.855 4015.01 963.006 4015.01 958.801C4015.01 954.625 4014.37 950.79 4013.09 947.295C4011.84 943.773 4009.91 940.946 4007.3 938.815C4004.68 936.685 4001.39 935.619 3997.41 935.619C3993.41 935.619 3990.08 936.685 3987.44 938.815C3984.83 940.946 3982.88 943.773 3981.6 947.295C3980.35 950.79 3979.73 954.625 3979.73 958.801C3979.73 963.006 3980.35 966.855 3981.6 970.349C3982.88 973.844 3984.83 976.642 3987.44 978.744C3990.08 980.847 3993.41 981.898 3997.41 981.898ZM4053.82 969.071L4053.74 953.517H4055.95L4082.03 925.818H4097.29L4067.54 957.352H4065.54L4053.82 969.071ZM4042.1 991.273V904H4054.84V991.273H4042.1ZM4083.44 991.273L4060 960.165L4068.78 951.259L4099.08 991.273H4083.44ZM4157.95 941.798L4146.4 943.844C4145.92 942.366 4145.15 940.96 4144.1 939.625C4143.07 938.29 4141.68 937.196 4139.92 936.344C4138.16 935.491 4135.96 935.065 4133.32 935.065C4129.71 935.065 4126.7 935.875 4124.28 937.494C4121.87 939.085 4120.66 941.145 4120.66 943.673C4120.66 945.861 4121.47 947.622 4123.09 948.957C4124.71 950.293 4127.32 951.386 4130.93 952.239L4141.33 954.625C4147.35 956.017 4151.84 958.162 4154.79 961.06C4157.75 963.957 4159.23 967.722 4159.23 972.352C4159.23 976.273 4158.09 979.767 4155.82 982.835C4153.57 985.875 4150.43 988.261 4146.4 989.994C4142.39 991.727 4137.75 992.594 4132.46 992.594C4125.13 992.594 4119.15 991.031 4114.52 987.906C4109.89 984.753 4107.05 980.278 4106 974.483L4118.32 972.608C4119.08 975.818 4120.66 978.247 4123.05 979.895C4125.43 981.514 4128.54 982.324 4132.38 982.324C4136.55 982.324 4139.89 981.457 4142.39 979.724C4144.89 977.963 4146.14 975.818 4146.14 973.29C4146.14 971.244 4145.38 969.526 4143.84 968.134C4142.34 966.741 4140.02 965.69 4136.9 964.98L4125.82 962.551C4119.71 961.159 4115.19 958.943 4112.27 955.903C4109.37 952.864 4107.92 949.014 4107.92 944.355C4107.92 940.491 4109 937.111 4111.16 934.213C4113.32 931.315 4116.3 929.057 4120.11 927.438C4123.91 925.79 4128.27 924.966 4133.19 924.966C4140.26 924.966 4145.83 926.5 4149.89 929.568C4153.96 932.608 4156.64 936.685 4157.95 941.798Z" fill="white"/>
<line x1="2131" y1="330" x2="2131" y2="403" stroke="white" stroke-width="10"/>
<line x1="3882" y1="330" x2="3882" y2="403" stroke="white" stroke-width="10"/>
<mask id="path-13-inside-6_3629_34" fill="white">
<rect x="1096" y="403" width="2080" height="242" rx="5"/>
</mask>
<rect x="1096" y="403" width="2080" height="242" rx="5" fill="#0284C7" stroke="#F6F6F6" stroke-width="20" mask="url(#path-13-inside-6_3629_34)"/>
<path d="M1898 568.767V481.494H1929.11C1935.9 481.494 1941.52 482.73 1945.98 485.202C1950.44 487.673 1953.78 491.054 1956 495.344C1958.21 499.605 1959.32 504.406 1959.32 509.747C1959.32 515.116 1958.2 519.946 1955.95 524.236C1953.74 528.497 1950.39 531.878 1945.9 534.378C1941.44 536.849 1935.83 538.085 1929.07 538.085H1907.67V526.92H1927.87C1932.16 526.92 1935.64 526.182 1938.31 524.705C1940.98 523.199 1942.94 521.153 1944.19 518.568C1945.44 515.983 1946.07 513.043 1946.07 509.747C1946.07 506.452 1945.44 503.526 1944.19 500.969C1942.94 498.412 1940.97 496.409 1938.27 494.96C1935.6 493.511 1932.08 492.787 1927.7 492.787H1911.17V568.767H1898ZM1973.74 568.767V503.313H1986.05V513.71H1986.73C1987.93 510.188 1990.03 507.418 1993.04 505.401C1996.08 503.355 1999.52 502.332 2003.35 502.332C2004.15 502.332 2005.08 502.361 2006.16 502.418C2007.27 502.474 2008.14 502.545 2008.76 502.631V514.818C2008.25 514.676 2007.34 514.52 2006.04 514.349C2004.73 514.151 2003.42 514.051 2002.12 514.051C1999.1 514.051 1996.42 514.69 1994.06 515.969C1991.73 517.219 1989.89 518.966 1988.52 521.21C1987.16 523.426 1986.48 525.955 1986.48 528.795V568.767H1973.74ZM2038.25 570.216C2034.1 570.216 2030.35 569.449 2027 567.915C2023.65 566.352 2020.99 564.094 2019.03 561.139C2017.1 558.185 2016.14 554.563 2016.14 550.273C2016.14 546.58 2016.85 543.54 2018.27 541.153C2019.69 538.767 2021.6 536.878 2024.02 535.486C2026.43 534.094 2029.13 533.043 2032.12 532.332C2035.1 531.622 2038.14 531.082 2041.23 530.713C2045.16 530.259 2048.34 529.889 2050.78 529.605C2053.22 529.293 2055 528.795 2056.11 528.114C2057.21 527.432 2057.77 526.324 2057.77 524.79V524.491C2057.77 520.77 2056.72 517.886 2054.62 515.841C2052.54 513.795 2049.44 512.773 2045.33 512.773C2041.04 512.773 2037.66 513.724 2035.18 515.628C2032.74 517.503 2031.05 519.591 2030.11 521.892L2018.14 519.165C2019.56 515.188 2021.63 511.977 2024.36 509.534C2027.12 507.063 2030.28 505.273 2033.86 504.165C2037.44 503.028 2041.21 502.46 2045.16 502.46C2047.77 502.46 2050.54 502.773 2053.46 503.398C2056.42 503.994 2059.17 505.102 2061.73 506.722C2064.32 508.341 2066.43 510.656 2068.08 513.668C2069.73 516.651 2070.55 520.528 2070.55 525.301V568.767H2058.11V559.818H2057.6C2056.77 561.466 2055.54 563.085 2053.89 564.676C2052.24 566.267 2050.13 567.588 2047.54 568.639C2044.96 569.69 2041.86 570.216 2038.25 570.216ZM2041.02 559.989C2044.54 559.989 2047.56 559.293 2050.06 557.901C2052.58 556.509 2054.5 554.69 2055.81 552.446C2057.14 550.173 2057.81 547.744 2057.81 545.159V536.722C2057.36 537.176 2056.48 537.602 2055.17 538C2053.89 538.369 2052.43 538.696 2050.78 538.98C2049.13 539.236 2047.53 539.477 2045.96 539.705C2044.4 539.903 2043.1 540.074 2042.04 540.216C2039.57 540.528 2037.31 541.054 2035.27 541.793C2033.25 542.531 2031.63 543.597 2030.41 544.989C2029.22 546.352 2028.62 548.17 2028.62 550.443C2028.62 553.597 2029.79 555.983 2032.12 557.602C2034.44 559.193 2037.41 559.989 2041.02 559.989ZM2115.09 570.088C2108.76 570.088 2103.3 568.653 2098.73 565.784C2094.19 562.886 2090.69 558.895 2088.25 553.81C2085.8 548.724 2084.58 542.901 2084.58 536.338C2084.58 529.69 2085.83 523.824 2088.33 518.739C2090.83 513.625 2094.36 509.634 2098.9 506.764C2103.45 503.895 2108.8 502.46 2114.97 502.46C2119.94 502.46 2124.37 503.384 2128.26 505.23C2132.15 507.048 2135.29 509.605 2137.68 512.901C2140.09 516.196 2141.53 520.045 2141.98 524.449H2129.58C2128.9 521.381 2127.34 518.739 2124.9 516.523C2122.48 514.307 2119.24 513.199 2115.18 513.199C2111.63 513.199 2108.52 514.136 2105.85 516.011C2103.21 517.858 2101.15 520.5 2099.67 523.938C2098.19 527.347 2097.45 531.381 2097.45 536.04C2097.45 540.813 2098.18 544.932 2099.63 548.398C2101.07 551.864 2103.12 554.548 2105.76 556.452C2108.43 558.355 2111.57 559.307 2115.18 559.307C2117.59 559.307 2119.78 558.866 2121.74 557.986C2123.73 557.077 2125.39 555.784 2126.73 554.108C2128.09 552.432 2129.04 550.415 2129.58 548.057H2141.98C2141.53 552.29 2140.15 556.068 2137.85 559.392C2135.55 562.716 2132.47 565.33 2128.6 567.233C2124.77 569.136 2120.27 570.088 2115.09 570.088ZM2186.16 503.313V513.54H2150.41V503.313H2186.16ZM2160 487.631H2172.74V549.548C2172.74 552.02 2173.11 553.881 2173.85 555.131C2174.59 556.352 2175.54 557.19 2176.7 557.645C2177.9 558.071 2179.19 558.284 2180.58 558.284C2181.6 558.284 2182.5 558.213 2183.27 558.071C2184.03 557.929 2184.63 557.815 2185.06 557.73L2187.36 568.256C2186.62 568.54 2185.57 568.824 2184.2 569.108C2182.84 569.42 2181.14 569.591 2179.09 569.619C2175.74 569.676 2172.61 569.079 2169.71 567.83C2166.82 566.58 2164.47 564.648 2162.68 562.034C2160.89 559.42 2160 556.139 2160 552.19V487.631ZM2200.26 568.767V503.313H2213V568.767H2200.26ZM2206.69 493.213C2204.48 493.213 2202.57 492.474 2200.98 490.997C2199.42 489.491 2198.64 487.702 2198.64 485.628C2198.64 483.526 2199.42 481.736 2200.98 480.259C2202.57 478.753 2204.48 478 2206.69 478C2208.91 478 2210.8 478.753 2212.36 480.259C2213.95 481.736 2214.75 483.526 2214.75 485.628C2214.75 487.702 2213.95 489.491 2212.36 490.997C2210.8 492.474 2208.91 493.213 2206.69 493.213ZM2257.71 570.088C2251.38 570.088 2245.92 568.653 2241.35 565.784C2236.8 562.886 2233.31 558.895 2230.87 553.81C2228.42 548.724 2227.2 542.901 2227.2 536.338C2227.2 529.69 2228.45 523.824 2230.95 518.739C2233.45 513.625 2236.97 509.634 2241.52 506.764C2246.06 503.895 2251.42 502.46 2257.58 502.46C2262.56 502.46 2266.99 503.384 2270.88 505.23C2274.77 507.048 2277.91 509.605 2280.3 512.901C2282.71 516.196 2284.15 520.045 2284.6 524.449H2272.2C2271.52 521.381 2269.96 518.739 2267.51 516.523C2265.1 514.307 2261.86 513.199 2257.8 513.199C2254.25 513.199 2251.14 514.136 2248.46 516.011C2245.82 517.858 2243.76 520.5 2242.29 523.938C2240.81 527.347 2240.07 531.381 2240.07 536.04C2240.07 540.813 2240.79 544.932 2242.24 548.398C2243.69 551.864 2245.74 554.548 2248.38 556.452C2251.05 558.355 2254.19 559.307 2257.8 559.307C2260.21 559.307 2262.4 558.866 2264.36 557.986C2266.35 557.077 2268.01 555.784 2269.35 554.108C2270.71 552.432 2271.66 550.415 2272.2 548.057H2284.6C2284.15 552.29 2282.77 556.068 2280.47 559.392C2278.17 562.716 2275.08 565.33 2271.22 567.233C2267.39 569.136 2262.88 570.088 2257.71 570.088ZM2326.44 570.088C2319.99 570.088 2314.43 568.71 2309.78 565.955C2305.14 563.17 2301.56 559.264 2299.04 554.236C2296.54 549.179 2295.29 543.256 2295.29 536.466C2295.29 529.761 2296.54 523.852 2299.04 518.739C2301.56 513.625 2305.09 509.634 2309.6 506.764C2314.15 503.895 2319.46 502.46 2325.54 502.46C2329.24 502.46 2332.81 503.071 2336.28 504.293C2339.75 505.514 2342.86 507.432 2345.61 510.045C2348.37 512.659 2350.54 516.054 2352.13 520.23C2353.72 524.378 2354.52 529.42 2354.52 535.358V539.875H2302.49V530.33H2342.03C2342.03 526.977 2341.35 524.009 2339.99 521.423C2338.62 518.81 2336.71 516.75 2334.24 515.244C2331.79 513.739 2328.92 512.986 2325.63 512.986C2322.05 512.986 2318.92 513.866 2316.25 515.628C2313.61 517.361 2311.56 519.634 2310.12 522.446C2308.7 525.23 2307.99 528.256 2307.99 531.523V538.98C2307.99 543.355 2308.75 547.077 2310.29 550.145C2311.85 553.213 2314.02 555.557 2316.81 557.176C2319.59 558.767 2322.84 559.563 2326.56 559.563C2328.98 559.563 2331.18 559.222 2333.17 558.54C2335.16 557.83 2336.88 556.778 2338.33 555.386C2339.78 553.994 2340.88 552.276 2341.65 550.23L2353.71 552.403C2352.74 555.955 2351.01 559.065 2348.51 561.736C2346.04 564.378 2342.93 566.438 2339.18 567.915C2335.46 569.364 2331.21 570.088 2326.44 570.088Z" fill="white"/>
<mask id="path-15-inside-7_3629_34" fill="white">
<rect x="1096" y="1251" width="2080" height="242" rx="5"/>
</mask>
<rect x="1096" y="1251" width="2080" height="242" rx="5" fill="#FEF08A" stroke="#F6F6F6" stroke-width="20" mask="url(#path-15-inside-7_3629_34)"/>
<path d="M1898 1416.77V1329.49H1929.11C1935.9 1329.49 1941.52 1330.73 1945.98 1333.2C1950.44 1335.67 1953.78 1339.05 1956 1343.34C1958.21 1347.61 1959.32 1352.41 1959.32 1357.75C1959.32 1363.12 1958.2 1367.95 1955.95 1372.24C1953.74 1376.5 1950.39 1379.88 1945.9 1382.38C1941.44 1384.85 1935.83 1386.09 1929.07 1386.09H1907.67V1374.92H1927.87C1932.16 1374.92 1935.64 1374.18 1938.31 1372.7C1940.98 1371.2 1942.94 1369.15 1944.19 1366.57C1945.44 1363.98 1946.07 1361.04 1946.07 1357.75C1946.07 1354.45 1945.44 1351.53 1944.19 1348.97C1942.94 1346.41 1940.97 1344.41 1938.27 1342.96C1935.6 1341.51 1932.08 1340.79 1927.7 1340.79H1911.17V1416.77H1898ZM1973.74 1416.77V1351.31H1986.05V1361.71H1986.73C1987.93 1358.19 1990.03 1355.42 1993.04 1353.4C1996.08 1351.36 1999.52 1350.33 2003.35 1350.33C2004.15 1350.33 2005.08 1350.36 2006.16 1350.42C2007.27 1350.47 2008.14 1350.55 2008.76 1350.63V1362.82C2008.25 1362.68 2007.34 1362.52 2006.04 1362.35C2004.73 1362.15 2003.42 1362.05 2002.12 1362.05C1999.1 1362.05 1996.42 1362.69 1994.06 1363.97C1991.73 1365.22 1989.89 1366.97 1988.52 1369.21C1987.16 1371.43 1986.48 1373.95 1986.48 1376.8V1416.77H1973.74ZM2038.25 1418.22C2034.1 1418.22 2030.35 1417.45 2027 1415.91C2023.65 1414.35 2020.99 1412.09 2019.03 1409.14C2017.1 1406.18 2016.14 1402.56 2016.14 1398.27C2016.14 1394.58 2016.85 1391.54 2018.27 1389.15C2019.69 1386.77 2021.6 1384.88 2024.02 1383.49C2026.43 1382.09 2029.13 1381.04 2032.12 1380.33C2035.1 1379.62 2038.14 1379.08 2041.23 1378.71C2045.16 1378.26 2048.34 1377.89 2050.78 1377.61C2053.22 1377.29 2055 1376.8 2056.11 1376.11C2057.21 1375.43 2057.77 1374.32 2057.77 1372.79V1372.49C2057.77 1368.77 2056.72 1365.89 2054.62 1363.84C2052.54 1361.8 2049.44 1360.77 2045.33 1360.77C2041.04 1360.77 2037.66 1361.72 2035.18 1363.63C2032.74 1365.5 2031.05 1367.59 2030.11 1369.89L2018.14 1367.16C2019.56 1363.19 2021.63 1359.98 2024.36 1357.53C2027.12 1355.06 2030.28 1353.27 2033.86 1352.16C2037.44 1351.03 2041.21 1350.46 2045.16 1350.46C2047.77 1350.46 2050.54 1350.77 2053.46 1351.4C2056.42 1351.99 2059.17 1353.1 2061.73 1354.72C2064.32 1356.34 2066.43 1358.66 2068.08 1361.67C2069.73 1364.65 2070.55 1368.53 2070.55 1373.3V1416.77H2058.11V1407.82H2057.6C2056.77 1409.47 2055.54 1411.09 2053.89 1412.68C2052.24 1414.27 2050.13 1415.59 2047.54 1416.64C2044.96 1417.69 2041.86 1418.22 2038.25 1418.22ZM2041.02 1407.99C2044.54 1407.99 2047.56 1407.29 2050.06 1405.9C2052.58 1404.51 2054.5 1402.69 2055.81 1400.45C2057.14 1398.17 2057.81 1395.74 2057.81 1393.16V1384.72C2057.36 1385.18 2056.48 1385.6 2055.17 1386C2053.89 1386.37 2052.43 1386.7 2050.78 1386.98C2049.13 1387.24 2047.53 1387.48 2045.96 1387.7C2044.4 1387.9 2043.1 1388.07 2042.04 1388.22C2039.57 1388.53 2037.31 1389.05 2035.27 1389.79C2033.25 1390.53 2031.63 1391.6 2030.41 1392.99C2029.22 1394.35 2028.62 1396.17 2028.62 1398.44C2028.62 1401.6 2029.79 1403.98 2032.12 1405.6C2034.44 1407.19 2037.41 1407.99 2041.02 1407.99ZM2115.09 1418.09C2108.76 1418.09 2103.3 1416.65 2098.73 1413.78C2094.19 1410.89 2090.69 1406.89 2088.25 1401.81C2085.8 1396.72 2084.58 1390.9 2084.58 1384.34C2084.58 1377.69 2085.83 1371.82 2088.33 1366.74C2090.83 1361.63 2094.36 1357.63 2098.9 1354.76C2103.45 1351.89 2108.8 1350.46 2114.97 1350.46C2119.94 1350.46 2124.37 1351.38 2128.26 1353.23C2132.15 1355.05 2135.29 1357.61 2137.68 1360.9C2140.09 1364.2 2141.53 1368.05 2141.98 1372.45H2129.58C2128.9 1369.38 2127.34 1366.74 2124.9 1364.52C2122.48 1362.31 2119.24 1361.2 2115.18 1361.2C2111.63 1361.2 2108.52 1362.14 2105.85 1364.01C2103.21 1365.86 2101.15 1368.5 2099.67 1371.94C2098.19 1375.35 2097.45 1379.38 2097.45 1384.04C2097.45 1388.81 2098.18 1392.93 2099.63 1396.4C2101.07 1399.86 2103.12 1402.55 2105.76 1404.45C2108.43 1406.36 2111.57 1407.31 2115.18 1407.31C2117.59 1407.31 2119.78 1406.87 2121.74 1405.99C2123.73 1405.08 2125.39 1403.78 2126.73 1402.11C2128.09 1400.43 2129.04 1398.41 2129.58 1396.06H2141.98C2141.53 1400.29 2140.15 1404.07 2137.85 1407.39C2135.55 1410.72 2132.47 1413.33 2128.6 1415.23C2124.77 1417.14 2120.27 1418.09 2115.09 1418.09ZM2186.16 1351.31V1361.54H2150.41V1351.31H2186.16ZM2160 1335.63H2172.74V1397.55C2172.74 1400.02 2173.11 1401.88 2173.85 1403.13C2174.59 1404.35 2175.54 1405.19 2176.7 1405.64C2177.9 1406.07 2179.19 1406.28 2180.58 1406.28C2181.6 1406.28 2182.5 1406.21 2183.27 1406.07C2184.03 1405.93 2184.63 1405.82 2185.06 1405.73L2187.36 1416.26C2186.62 1416.54 2185.57 1416.82 2184.2 1417.11C2182.84 1417.42 2181.14 1417.59 2179.09 1417.62C2175.74 1417.68 2172.61 1417.08 2169.71 1415.83C2166.82 1414.58 2164.47 1412.65 2162.68 1410.03C2160.89 1407.42 2160 1404.14 2160 1400.19V1335.63ZM2200.26 1416.77V1351.31H2213V1416.77H2200.26ZM2206.69 1341.21C2204.48 1341.21 2202.57 1340.47 2200.98 1339C2199.42 1337.49 2198.64 1335.7 2198.64 1333.63C2198.64 1331.53 2199.42 1329.74 2200.98 1328.26C2202.57 1326.75 2204.48 1326 2206.69 1326C2208.91 1326 2210.8 1326.75 2212.36 1328.26C2213.95 1329.74 2214.75 1331.53 2214.75 1333.63C2214.75 1335.7 2213.95 1337.49 2212.36 1339C2210.8 1340.47 2208.91 1341.21 2206.69 1341.21ZM2257.71 1418.09C2251.38 1418.09 2245.92 1416.65 2241.35 1413.78C2236.8 1410.89 2233.31 1406.89 2230.87 1401.81C2228.42 1396.72 2227.2 1390.9 2227.2 1384.34C2227.2 1377.69 2228.45 1371.82 2230.95 1366.74C2233.45 1361.63 2236.97 1357.63 2241.52 1354.76C2246.06 1351.89 2251.42 1350.46 2257.58 1350.46C2262.56 1350.46 2266.99 1351.38 2270.88 1353.23C2274.77 1355.05 2277.91 1357.61 2280.3 1360.9C2282.71 1364.2 2284.15 1368.05 2284.6 1372.45H2272.2C2271.52 1369.38 2269.96 1366.74 2267.51 1364.52C2265.1 1362.31 2261.86 1361.2 2257.8 1361.2C2254.25 1361.2 2251.14 1362.14 2248.46 1364.01C2245.82 1365.86 2243.76 1368.5 2242.29 1371.94C2240.81 1375.35 2240.07 1379.38 2240.07 1384.04C2240.07 1388.81 2240.79 1392.93 2242.24 1396.4C2243.69 1399.86 2245.74 1402.55 2248.38 1404.45C2251.05 1406.36 2254.19 1407.31 2257.8 1407.31C2260.21 1407.31 2262.4 1406.87 2264.36 1405.99C2266.35 1405.08 2268.01 1403.78 2269.35 1402.11C2270.71 1400.43 2271.66 1398.41 2272.2 1396.06H2284.6C2284.15 1400.29 2282.77 1404.07 2280.47 1407.39C2278.17 1410.72 2275.08 1413.33 2271.22 1415.23C2267.39 1417.14 2262.88 1418.09 2257.71 1418.09ZM2326.44 1418.09C2319.99 1418.09 2314.43 1416.71 2309.78 1413.95C2305.14 1411.17 2301.56 1407.26 2299.04 1402.24C2296.54 1397.18 2295.29 1391.26 2295.29 1384.47C2295.29 1377.76 2296.54 1371.85 2299.04 1366.74C2301.56 1361.63 2305.09 1357.63 2309.6 1354.76C2314.15 1351.89 2319.46 1350.46 2325.54 1350.46C2329.24 1350.46 2332.81 1351.07 2336.28 1352.29C2339.75 1353.51 2342.86 1355.43 2345.61 1358.05C2348.37 1360.66 2350.54 1364.05 2352.13 1368.23C2353.72 1372.38 2354.52 1377.42 2354.52 1383.36V1387.88H2302.49V1378.33H2342.03C2342.03 1374.98 2341.35 1372.01 2339.99 1369.42C2338.62 1366.81 2336.71 1364.75 2334.24 1363.24C2331.79 1361.74 2328.92 1360.99 2325.63 1360.99C2322.05 1360.99 2318.92 1361.87 2316.25 1363.63C2313.61 1365.36 2311.56 1367.63 2310.12 1370.45C2308.7 1373.23 2307.99 1376.26 2307.99 1379.52V1386.98C2307.99 1391.36 2308.75 1395.08 2310.29 1398.14C2311.85 1401.21 2314.02 1403.56 2316.81 1405.18C2319.59 1406.77 2322.84 1407.56 2326.56 1407.56C2328.98 1407.56 2331.18 1407.22 2333.17 1406.54C2335.16 1405.83 2336.88 1404.78 2338.33 1403.39C2339.78 1401.99 2340.88 1400.28 2341.65 1398.23L2353.71 1400.4C2352.74 1403.95 2351.01 1407.07 2348.51 1409.74C2346.04 1412.38 2342.93 1414.44 2339.18 1415.91C2335.46 1417.36 2331.21 1418.09 2326.44 1418.09Z" fill="#374151"/>
<mask id="path-17-inside-8_3629_34" fill="white">
<rect x="1237" y="733" width="1732" height="165" rx="5"/>
</mask>
<rect x="1237" y="733" width="1732" height="165" rx="5" fill="#38BDF8" stroke="#F6F6F6" stroke-width="20" mask="url(#path-17-inside-8_3629_34)"/>
<path d="M1801 794.122V785.621H1851.66V794.122H1831.23V851.075H1821.39V794.122H1801ZM1875.64 852.066C1871.04 852.066 1867.02 851.011 1863.59 848.902C1860.16 846.793 1857.5 843.842 1855.6 840.049C1853.71 836.256 1852.76 831.825 1852.76 826.754C1852.76 821.661 1853.71 817.208 1855.6 813.394C1857.5 809.58 1860.16 806.619 1863.59 804.509C1867.02 802.4 1871.04 801.345 1875.64 801.345C1880.25 801.345 1884.26 802.4 1887.69 804.509C1891.12 806.619 1893.79 809.58 1895.68 813.394C1897.58 817.208 1898.53 821.661 1898.53 826.754C1898.53 831.825 1897.58 836.256 1895.68 840.049C1893.79 843.842 1891.12 846.793 1887.69 848.902C1884.26 851.011 1880.25 852.066 1875.64 852.066ZM1875.68 844.044C1878.66 844.044 1881.13 843.256 1883.09 841.679C1885.05 840.102 1886.5 838.004 1887.44 835.383C1888.4 832.762 1888.87 829.875 1888.87 826.722C1888.87 823.589 1888.4 820.713 1887.44 818.092C1886.5 815.45 1885.05 813.33 1883.09 811.732C1881.13 810.134 1878.66 809.335 1875.68 809.335C1872.67 809.335 1870.18 810.134 1868.2 811.732C1866.24 813.33 1864.78 815.45 1863.82 818.092C1862.88 820.713 1862.41 823.589 1862.41 826.722C1862.41 829.875 1862.88 832.762 1863.82 835.383C1864.78 838.004 1866.24 840.102 1868.2 841.679C1870.18 843.256 1872.67 844.044 1875.68 844.044ZM1909.19 869.484V801.984H1918.53V809.942H1919.32C1919.88 808.92 1920.68 807.737 1921.72 806.395C1922.77 805.053 1924.21 803.881 1926.07 802.879C1927.92 801.856 1930.37 801.345 1933.42 801.345C1937.38 801.345 1940.92 802.347 1944.03 804.349C1947.14 806.352 1949.58 809.239 1951.35 813.011C1953.14 816.782 1954.03 821.32 1954.03 826.626C1954.03 831.931 1953.15 836.48 1951.38 840.273C1949.61 844.044 1947.18 846.952 1944.09 848.998C1941 851.022 1937.48 852.034 1933.51 852.034C1930.53 852.034 1928.09 851.533 1926.2 850.532C1924.32 849.531 1922.85 848.359 1921.79 847.016C1920.72 845.674 1919.9 844.481 1919.32 843.437H1918.75V869.484H1909.19ZM1918.56 826.53C1918.56 829.981 1919.06 833.007 1920.06 835.606C1921.06 838.206 1922.51 840.241 1924.41 841.711C1926.3 843.16 1928.62 843.884 1931.37 843.884C1934.23 843.884 1936.61 843.128 1938.53 841.615C1940.45 840.081 1941.9 838.004 1942.88 835.383C1943.88 832.762 1944.38 829.811 1944.38 826.53C1944.38 823.291 1943.89 820.383 1942.91 817.805C1941.95 815.227 1940.5 813.192 1938.56 811.7C1936.65 810.209 1934.25 809.463 1931.37 809.463C1928.6 809.463 1926.26 810.177 1924.34 811.604C1922.45 813.032 1921.01 815.024 1920.03 817.581C1919.05 820.138 1918.56 823.121 1918.56 826.53ZM1964.74 851.075V801.984H1974.3V851.075H1964.74ZM1969.57 794.41C1967.9 794.41 1966.48 793.856 1965.28 792.748C1964.11 791.619 1963.53 790.276 1963.53 788.721C1963.53 787.144 1964.11 785.802 1965.28 784.694C1966.48 783.565 1967.9 783 1969.57 783C1971.23 783 1972.64 783.565 1973.82 784.694C1975.01 785.802 1975.61 787.144 1975.61 788.721C1975.61 790.276 1975.01 791.619 1973.82 792.748C1972.64 793.856 1971.23 794.41 1969.57 794.41ZM2007.83 852.066C2003.08 852.066 1998.99 850.99 1995.56 848.838C1992.15 846.665 1989.53 843.671 1987.7 839.857C1985.86 836.043 1984.95 831.675 1984.95 826.754C1984.95 821.768 1985.88 817.368 1987.76 813.554C1989.63 809.719 1992.28 806.725 1995.69 804.573C1999.09 802.421 2003.11 801.345 2007.73 801.345C2011.46 801.345 2014.79 802.038 2017.71 803.423C2020.62 804.786 2022.98 806.704 2024.77 809.175C2026.58 811.647 2027.66 814.534 2028 817.837H2018.7C2018.19 815.535 2017.01 813.554 2015.18 811.892C2013.37 810.23 2010.94 809.399 2007.89 809.399C2005.23 809.399 2002.9 810.102 2000.89 811.508C1998.91 812.893 1997.37 814.875 1996.26 817.453C1995.15 820.01 1994.6 823.035 1994.6 826.53C1994.6 830.109 1995.14 833.199 1996.23 835.798C1997.32 838.398 1998.85 840.411 2000.83 841.839C2002.83 843.266 2005.19 843.98 2007.89 843.98C2009.71 843.98 2011.35 843.65 2012.82 842.989C2014.31 842.307 2015.55 841.338 2016.56 840.081C2017.58 838.824 2018.29 837.311 2018.7 835.543H2028C2027.66 838.717 2026.62 841.551 2024.9 844.044C2023.17 846.537 2020.86 848.497 2017.96 849.925C2015.09 851.352 2011.71 852.066 2007.83 852.066ZM2062.8 851.075V785.621H2086.13C2091.23 785.621 2095.44 786.548 2098.79 788.401C2102.13 790.255 2104.64 792.79 2106.3 796.008C2107.96 799.204 2108.79 802.805 2108.79 806.81C2108.79 810.837 2107.95 814.459 2106.27 817.677C2104.61 820.873 2102.09 823.408 2098.73 825.283C2095.38 827.137 2091.17 828.064 2086.1 828.064H2070.06V819.69H2085.21C2088.42 819.69 2091.03 819.136 2093.04 818.028C2095.04 816.899 2096.51 815.365 2097.45 813.426C2098.38 811.487 2098.85 809.282 2098.85 806.81C2098.85 804.339 2098.38 802.144 2097.45 800.227C2096.51 798.309 2095.03 796.807 2093 795.72C2091 794.633 2088.36 794.09 2085.08 794.09H2072.68V851.075H2062.8ZM2119.6 851.075V801.984H2128.84V809.783H2129.35C2130.25 807.141 2131.82 805.063 2134.08 803.55C2136.36 802.016 2138.94 801.249 2141.82 801.249C2142.41 801.249 2143.12 801.271 2143.92 801.313C2144.76 801.356 2145.41 801.409 2145.87 801.473V810.614C2145.49 810.507 2144.81 810.39 2143.83 810.262C2142.85 810.113 2141.87 810.038 2140.89 810.038C2138.63 810.038 2136.62 810.518 2134.85 811.477C2133.1 812.414 2131.72 813.724 2130.69 815.408C2129.67 817.07 2129.16 818.966 2129.16 821.097V851.075H2119.6ZM2167.99 852.162C2164.88 852.162 2162.07 851.587 2159.55 850.436C2157.04 849.264 2155.05 847.57 2153.58 845.354C2152.13 843.138 2151.4 840.422 2151.4 837.205C2151.4 834.435 2151.94 832.155 2153 830.365C2154.07 828.575 2155.51 827.158 2157.32 826.114C2159.13 825.07 2161.15 824.282 2163.39 823.749C2165.63 823.217 2167.91 822.812 2170.23 822.535C2173.17 822.194 2175.55 821.917 2177.39 821.704C2179.22 821.469 2180.55 821.097 2181.38 820.585C2182.21 820.074 2182.63 819.243 2182.63 818.092V817.869C2182.63 815.077 2181.84 812.915 2180.26 811.381C2178.71 809.847 2176.39 809.08 2173.3 809.08C2170.08 809.08 2167.54 809.793 2165.69 811.221C2163.86 812.627 2162.59 814.193 2161.89 815.919L2152.91 813.874C2153.97 810.891 2155.53 808.483 2157.57 806.651C2159.64 804.797 2162.01 803.455 2164.7 802.624C2167.38 801.771 2170.21 801.345 2173.17 801.345C2175.13 801.345 2177.21 801.58 2179.4 802.048C2181.62 802.496 2183.68 803.327 2185.6 804.541C2187.54 805.756 2189.13 807.492 2190.36 809.751C2191.6 811.988 2192.22 814.896 2192.22 818.476V851.075H2182.88V844.364H2182.5C2181.88 845.599 2180.96 846.814 2179.72 848.007C2178.48 849.2 2176.9 850.191 2174.96 850.979C2173.02 851.768 2170.7 852.162 2167.99 852.162ZM2170.07 844.491C2172.71 844.491 2174.97 843.969 2176.84 842.925C2178.74 841.881 2180.18 840.518 2181.16 838.834C2182.16 837.13 2182.66 835.308 2182.66 833.369V827.041C2182.32 827.382 2181.66 827.702 2180.68 828C2179.72 828.277 2178.62 828.522 2177.39 828.735C2176.15 828.927 2174.95 829.108 2173.78 829.278C2172.6 829.428 2171.62 829.555 2170.84 829.662C2168.98 829.896 2167.29 830.29 2165.75 830.844C2164.24 831.398 2163.03 832.197 2162.11 833.241C2161.22 834.264 2160.77 835.628 2160.77 837.332C2160.77 839.697 2161.64 841.487 2163.39 842.702C2165.14 843.895 2167.36 844.491 2170.07 844.491ZM2225.62 852.066C2220.87 852.066 2216.78 850.99 2213.35 848.838C2209.94 846.665 2207.32 843.671 2205.49 839.857C2203.66 836.043 2202.74 831.675 2202.74 826.754C2202.74 821.768 2203.68 817.368 2205.55 813.554C2207.43 809.719 2210.07 806.725 2213.48 804.573C2216.89 802.421 2220.9 801.345 2225.53 801.345C2229.26 801.345 2232.58 802.038 2235.5 803.423C2238.42 804.786 2240.77 806.704 2242.56 809.175C2244.37 811.647 2245.45 814.534 2245.79 817.837H2236.49C2235.98 815.535 2234.81 813.554 2232.97 811.892C2231.16 810.23 2228.73 809.399 2225.69 809.399C2223.02 809.399 2220.69 810.102 2218.69 811.508C2216.71 812.893 2215.16 814.875 2214.05 817.453C2212.95 820.01 2212.39 823.035 2212.39 826.53C2212.39 830.109 2212.93 833.199 2214.02 835.798C2215.11 838.398 2216.64 840.411 2218.62 841.839C2220.63 843.266 2222.98 843.98 2225.69 843.98C2227.5 843.98 2229.14 843.65 2230.61 842.989C2232.1 842.307 2233.35 841.338 2234.35 840.081C2235.37 838.824 2236.08 837.311 2236.49 835.543H2245.79C2245.45 838.717 2244.42 841.551 2242.69 844.044C2240.96 846.537 2238.65 848.497 2235.75 849.925C2232.88 851.352 2229.5 852.066 2225.62 852.066ZM2278.92 801.984V809.655H2252.11V801.984H2278.92ZM2259.3 790.223H2268.86V836.661C2268.86 838.515 2269.13 839.91 2269.69 840.848C2270.24 841.764 2270.96 842.393 2271.83 842.734C2272.72 843.053 2273.69 843.213 2274.74 843.213C2275.51 843.213 2276.18 843.16 2276.75 843.053C2277.33 842.947 2277.77 842.861 2278.09 842.798L2279.82 850.692C2279.27 850.905 2278.48 851.118 2277.45 851.331C2276.43 851.565 2275.15 851.693 2273.62 851.714C2271.11 851.757 2268.76 851.31 2266.59 850.372C2264.41 849.435 2262.66 847.986 2261.31 846.026C2259.97 844.065 2259.3 841.604 2259.3 838.643V790.223ZM2289.5 851.075V801.984H2299.05V851.075H2289.5ZM2294.32 794.41C2292.66 794.41 2291.23 793.856 2290.04 792.748C2288.87 791.619 2288.28 790.276 2288.28 788.721C2288.28 787.144 2288.87 785.802 2290.04 784.694C2291.23 783.565 2292.66 783 2294.32 783C2295.98 783 2297.4 783.565 2298.57 784.694C2299.77 785.802 2300.36 787.144 2300.36 788.721C2300.36 790.276 2299.77 791.619 2298.57 792.748C2297.4 793.856 2295.98 794.41 2294.32 794.41ZM2332.59 852.066C2327.83 852.066 2323.74 850.99 2320.31 848.838C2316.9 846.665 2314.28 843.671 2312.45 839.857C2310.62 836.043 2309.7 831.675 2309.7 826.754C2309.7 821.768 2310.64 817.368 2312.52 813.554C2314.39 809.719 2317.03 806.725 2320.44 804.573C2323.85 802.421 2327.87 801.345 2332.49 801.345C2336.22 801.345 2339.54 802.038 2342.46 803.423C2345.38 804.786 2347.74 806.704 2349.52 809.175C2351.34 811.647 2352.41 814.534 2352.75 817.837H2343.45C2342.94 815.535 2341.77 813.554 2339.94 811.892C2338.13 810.23 2335.7 809.399 2332.65 809.399C2329.99 809.399 2327.65 810.102 2325.65 811.508C2323.67 812.893 2322.12 814.875 2321.02 817.453C2319.91 820.01 2319.35 823.035 2319.35 826.53C2319.35 830.109 2319.9 833.199 2320.98 835.798C2322.07 838.398 2323.61 840.411 2325.59 841.839C2327.59 843.266 2329.94 843.98 2332.65 843.98C2334.46 843.98 2336.1 843.65 2337.57 842.989C2339.06 842.307 2340.31 841.338 2341.31 840.081C2342.33 838.824 2343.05 837.311 2343.45 835.543H2352.75C2352.41 838.717 2351.38 841.551 2349.65 844.044C2347.93 846.537 2345.62 848.497 2342.72 849.925C2339.84 851.352 2336.46 852.066 2332.59 852.066ZM2384.13 852.066C2379.29 852.066 2375.13 851.033 2371.63 848.966C2368.16 846.878 2365.48 843.948 2363.58 840.177C2361.7 836.384 2360.77 831.942 2360.77 826.849C2360.77 821.821 2361.7 817.389 2363.58 813.554C2365.48 809.719 2368.12 806.725 2371.51 804.573C2374.91 802.421 2378.9 801.345 2383.46 801.345C2386.23 801.345 2388.91 801.803 2391.51 802.719C2394.11 803.636 2396.45 805.074 2398.51 807.034C2400.58 808.994 2402.21 811.54 2403.4 814.673C2404.6 817.783 2405.19 821.565 2405.19 826.018V829.406H2366.17V822.247H2395.83C2395.83 819.733 2395.32 817.506 2394.29 815.567C2393.27 813.607 2391.83 812.062 2389.98 810.933C2388.15 809.804 2385.99 809.239 2383.52 809.239C2380.84 809.239 2378.49 809.9 2376.49 811.221C2374.51 812.521 2372.98 814.225 2371.89 816.334C2370.82 818.423 2370.29 820.692 2370.29 823.142V828.735C2370.29 832.016 2370.87 834.807 2372.02 837.109C2373.19 839.41 2374.82 841.168 2376.91 842.382C2378.99 843.575 2381.43 844.172 2384.23 844.172C2386.04 844.172 2387.69 843.916 2389.18 843.405C2390.67 842.872 2391.96 842.084 2393.05 841.04C2394.13 839.996 2394.96 838.707 2395.54 837.173L2404.58 838.803C2403.86 841.466 2402.56 843.799 2400.69 845.802C2398.83 847.783 2396.5 849.328 2393.69 850.436C2390.89 851.523 2387.71 852.066 2384.13 852.066Z" fill="white"/>
<mask id="path-19-inside-9_3629_34" fill="white">
<rect x="1237" y="993" width="1732" height="165" rx="5"/>
</mask>
<rect x="1237" y="993" width="1732" height="165" rx="5" fill="#38BDF8" stroke="#F6F6F6" stroke-width="20" mask="url(#path-19-inside-9_3629_34)"/>
<path d="M1761 1109.08V1043.62H1770.88V1100.57H1800.53V1109.08H1761ZM1832.19 1110.07C1827.35 1110.07 1823.19 1109.03 1819.69 1106.97C1816.22 1104.88 1813.54 1101.95 1811.64 1098.18C1809.77 1094.38 1808.83 1089.94 1808.83 1084.85C1808.83 1079.82 1809.77 1075.39 1811.64 1071.55C1813.54 1067.72 1816.18 1064.73 1819.57 1062.57C1822.98 1060.42 1826.96 1059.35 1831.52 1059.35C1834.29 1059.35 1836.97 1059.8 1839.57 1060.72C1842.17 1061.64 1844.51 1063.07 1846.57 1065.03C1848.64 1066.99 1850.27 1069.54 1851.46 1072.67C1852.66 1075.78 1853.25 1079.57 1853.25 1084.02V1087.41H1814.23V1080.25H1843.89C1843.89 1077.73 1843.38 1075.51 1842.35 1073.57C1841.33 1071.61 1839.89 1070.06 1838.04 1068.93C1836.21 1067.8 1834.06 1067.24 1831.58 1067.24C1828.9 1067.24 1826.56 1067.9 1824.55 1069.22C1822.57 1070.52 1821.04 1072.23 1819.95 1074.33C1818.89 1076.42 1818.35 1078.69 1818.35 1081.14V1086.74C1818.35 1090.02 1818.93 1092.81 1820.08 1095.11C1821.25 1097.41 1822.88 1099.17 1824.97 1100.38C1827.06 1101.58 1829.5 1102.17 1832.29 1102.17C1834.1 1102.17 1835.75 1101.92 1837.24 1101.4C1838.73 1100.87 1840.02 1100.08 1841.11 1099.04C1842.19 1098 1843.03 1096.71 1843.6 1095.17L1852.65 1096.8C1851.92 1099.47 1850.62 1101.8 1848.75 1103.8C1846.89 1105.78 1844.56 1107.33 1841.75 1108.44C1838.96 1109.52 1835.77 1110.07 1832.19 1110.07ZM1900.64 1071.97L1891.98 1073.5C1891.62 1072.4 1891.04 1071.34 1890.25 1070.34C1889.49 1069.34 1888.44 1068.52 1887.12 1067.88C1885.8 1067.24 1884.15 1066.92 1882.17 1066.92C1879.46 1066.92 1877.2 1067.53 1875.39 1068.74C1873.58 1069.93 1872.68 1071.48 1872.68 1073.38C1872.68 1075.02 1873.28 1076.34 1874.5 1077.34C1875.71 1078.34 1877.67 1079.16 1880.38 1079.8L1888.18 1081.59C1892.69 1082.63 1896.06 1084.24 1898.28 1086.42C1900.49 1088.59 1901.6 1091.41 1901.6 1094.88C1901.6 1097.83 1900.75 1100.45 1899.04 1102.75C1897.36 1105.03 1895.01 1106.82 1891.98 1108.12C1888.98 1109.42 1885.49 1110.07 1881.53 1110.07C1876.03 1110.07 1871.55 1108.89 1868.07 1106.55C1864.6 1104.19 1862.47 1100.83 1861.68 1096.48L1870.92 1095.08C1871.49 1097.48 1872.68 1099.31 1874.47 1100.54C1876.26 1101.76 1878.59 1102.36 1881.47 1102.36C1884.6 1102.36 1887.1 1101.71 1888.98 1100.41C1890.85 1099.09 1891.79 1097.48 1891.79 1095.59C1891.79 1094.05 1891.21 1092.76 1890.06 1091.72C1888.93 1090.68 1887.2 1089.89 1884.85 1089.36L1876.54 1087.53C1871.96 1086.49 1868.58 1084.83 1866.38 1082.55C1864.21 1080.27 1863.12 1077.38 1863.12 1073.89C1863.12 1070.99 1863.93 1068.45 1865.55 1066.28C1867.17 1064.11 1869.41 1062.41 1872.26 1061.2C1875.12 1059.96 1878.39 1059.35 1882.07 1059.35C1887.38 1059.35 1891.55 1060.5 1894.6 1062.8C1897.65 1065.08 1899.66 1068.13 1900.64 1071.97ZM1948.89 1071.97L1940.23 1073.5C1939.87 1072.4 1939.3 1071.34 1938.51 1070.34C1937.74 1069.34 1936.7 1068.52 1935.37 1067.88C1934.05 1067.24 1932.4 1066.92 1930.42 1066.92C1927.71 1066.92 1925.46 1067.53 1923.65 1068.74C1921.83 1069.93 1920.93 1071.48 1920.93 1073.38C1920.93 1075.02 1921.54 1076.34 1922.75 1077.34C1923.96 1078.34 1925.92 1079.16 1928.63 1079.8L1936.43 1081.59C1940.95 1082.63 1944.31 1084.24 1946.53 1086.42C1948.74 1088.59 1949.85 1091.41 1949.85 1094.88C1949.85 1097.83 1949 1100.45 1947.3 1102.75C1945.61 1105.03 1943.26 1106.82 1940.23 1108.12C1937.23 1109.42 1933.74 1110.07 1929.78 1110.07C1924.28 1110.07 1919.8 1108.89 1916.33 1106.55C1912.85 1104.19 1910.72 1100.83 1909.93 1096.48L1919.17 1095.08C1919.75 1097.48 1920.93 1099.31 1922.72 1100.54C1924.51 1101.76 1926.84 1102.36 1929.72 1102.36C1932.85 1102.36 1935.35 1101.71 1937.23 1100.41C1939.1 1099.09 1940.04 1097.48 1940.04 1095.59C1940.04 1094.05 1939.47 1092.76 1938.31 1091.72C1937.19 1090.68 1935.45 1089.89 1933.11 1089.36L1924.8 1087.53C1920.21 1086.49 1916.83 1084.83 1914.63 1082.55C1912.46 1080.27 1911.37 1077.38 1911.37 1073.89C1911.37 1070.99 1912.18 1068.45 1913.8 1066.28C1915.42 1064.11 1917.66 1062.41 1920.51 1061.2C1923.37 1059.96 1926.64 1059.35 1930.32 1059.35C1935.63 1059.35 1939.81 1060.5 1942.85 1062.8C1945.9 1065.08 1947.91 1068.13 1948.89 1071.97ZM1981.04 1110.07C1976.44 1110.07 1972.42 1109.01 1968.99 1106.9C1965.56 1104.79 1962.89 1101.84 1961 1098.05C1959.1 1094.26 1958.15 1089.82 1958.15 1084.75C1958.15 1079.66 1959.1 1075.21 1961 1071.39C1962.89 1067.58 1965.56 1064.62 1968.99 1062.51C1972.42 1060.4 1976.44 1059.35 1981.04 1059.35C1985.64 1059.35 1989.66 1060.4 1993.09 1062.51C1996.52 1064.62 1999.18 1067.58 2001.08 1071.39C2002.97 1075.21 2003.92 1079.66 2003.92 1084.75C2003.92 1089.82 2002.97 1094.26 2001.08 1098.05C1999.18 1101.84 1996.52 1104.79 1993.09 1106.9C1989.66 1109.01 1985.64 1110.07 1981.04 1110.07ZM1981.07 1102.04C1984.05 1102.04 1986.52 1101.26 1988.48 1099.68C1990.44 1098.1 1991.89 1096 1992.83 1093.38C1993.79 1090.76 1994.27 1087.87 1994.27 1084.72C1994.27 1081.59 1993.79 1078.71 1992.83 1076.09C1991.89 1073.45 1990.44 1071.33 1988.48 1069.73C1986.52 1068.13 1984.05 1067.34 1981.07 1067.34C1978.07 1067.34 1975.57 1068.13 1973.59 1069.73C1971.63 1071.33 1970.17 1073.45 1969.21 1076.09C1968.27 1078.71 1967.81 1081.59 1967.81 1084.72C1967.81 1087.87 1968.27 1090.76 1969.21 1093.38C1970.17 1096 1971.63 1098.1 1973.59 1099.68C1975.57 1101.26 1978.07 1102.04 1981.07 1102.04ZM2024.14 1079.93V1109.08H2014.59V1059.98H2023.76V1067.97H2024.37C2025.5 1065.37 2027.27 1063.29 2029.67 1061.71C2032.1 1060.13 2035.16 1059.35 2038.85 1059.35C2042.19 1059.35 2045.12 1060.05 2047.63 1061.45C2050.15 1062.84 2052.1 1064.91 2053.48 1067.65C2054.87 1070.4 2055.56 1073.8 2055.56 1077.85V1109.08H2046V1079C2046 1075.44 2045.08 1072.66 2043.22 1070.66C2041.37 1068.63 2038.82 1067.62 2035.59 1067.62C2033.37 1067.62 2031.4 1068.1 2029.67 1069.06C2027.97 1070.02 2026.62 1071.43 2025.61 1073.28C2024.63 1075.11 2024.14 1077.33 2024.14 1079.93ZM2092.96 1109.08V1043.62H2116.29C2121.39 1043.62 2125.6 1044.55 2128.95 1046.4C2132.29 1048.25 2134.8 1050.79 2136.46 1054.01C2138.12 1057.2 2138.95 1060.8 2138.95 1064.81C2138.95 1068.84 2138.11 1072.46 2136.43 1075.68C2134.77 1078.87 2132.25 1081.41 2128.89 1083.28C2125.54 1085.14 2121.33 1086.06 2116.26 1086.06H2100.22V1077.69H2115.37C2118.58 1077.69 2121.19 1077.14 2123.2 1076.03C2125.2 1074.9 2126.67 1073.37 2127.61 1071.43C2128.54 1069.49 2129.01 1067.28 2129.01 1064.81C2129.01 1062.34 2128.54 1060.14 2127.61 1058.23C2126.67 1056.31 2125.19 1054.81 2123.16 1053.72C2121.16 1052.63 2118.52 1052.09 2115.24 1052.09H2102.84V1109.08H2092.96ZM2149.76 1109.08V1059.98H2159V1067.78H2159.51C2160.41 1065.14 2161.98 1063.06 2164.24 1061.55C2166.52 1060.02 2169.1 1059.25 2171.98 1059.25C2172.57 1059.25 2173.28 1059.27 2174.09 1059.31C2174.92 1059.36 2175.57 1059.41 2176.04 1059.47V1068.61C2175.65 1068.51 2174.97 1068.39 2173.99 1068.26C2173.01 1068.11 2172.03 1068.04 2171.05 1068.04C2168.79 1068.04 2166.78 1068.52 2165.01 1069.48C2163.26 1070.41 2161.88 1071.72 2160.85 1073.41C2159.83 1075.07 2159.32 1076.97 2159.32 1079.1V1109.08H2149.76ZM2198.15 1110.16C2195.04 1110.16 2192.23 1109.59 2189.71 1108.44C2187.2 1107.26 2185.21 1105.57 2183.74 1103.35C2182.29 1101.14 2181.56 1098.42 2181.56 1095.2C2181.56 1092.43 2182.1 1090.15 2183.16 1088.37C2184.23 1086.58 2185.67 1085.16 2187.48 1084.11C2189.29 1083.07 2191.31 1082.28 2193.55 1081.75C2195.79 1081.22 2198.07 1080.81 2200.39 1080.53C2203.33 1080.19 2205.72 1079.92 2207.55 1079.7C2209.38 1079.47 2210.71 1079.1 2211.54 1078.59C2212.37 1078.07 2212.79 1077.24 2212.79 1076.09V1075.87C2212.79 1073.08 2212 1070.91 2210.42 1069.38C2208.87 1067.85 2206.55 1067.08 2203.46 1067.08C2200.24 1067.08 2197.7 1067.79 2195.85 1069.22C2194.02 1070.63 2192.75 1072.19 2192.05 1073.92L2183.07 1071.87C2184.13 1068.89 2185.69 1066.48 2187.73 1064.65C2189.8 1062.8 2192.17 1061.45 2194.86 1060.62C2197.54 1059.77 2200.37 1059.35 2203.33 1059.35C2205.29 1059.35 2207.37 1059.58 2209.56 1060.05C2211.78 1060.5 2213.84 1061.33 2215.76 1062.54C2217.7 1063.76 2219.29 1065.49 2220.52 1067.75C2221.76 1069.99 2222.38 1072.9 2222.38 1076.48V1109.08H2213.05V1102.36H2212.66C2212.04 1103.6 2211.12 1104.81 2209.88 1106.01C2208.65 1107.2 2207.06 1108.19 2205.12 1108.98C2203.18 1109.77 2200.86 1110.16 2198.15 1110.16ZM2200.23 1102.49C2202.87 1102.49 2205.13 1101.97 2207 1100.93C2208.9 1099.88 2210.34 1098.52 2211.32 1096.83C2212.32 1095.13 2212.82 1093.31 2212.82 1091.37V1085.04C2212.48 1085.38 2211.82 1085.7 2210.84 1086C2209.88 1086.28 2208.78 1086.52 2207.55 1086.74C2206.31 1086.93 2205.11 1087.11 2203.94 1087.28C2202.76 1087.43 2201.78 1087.56 2201 1087.66C2199.14 1087.9 2197.45 1088.29 2195.91 1088.84C2194.4 1089.4 2193.19 1090.2 2192.27 1091.24C2191.38 1092.26 2190.93 1093.63 2190.93 1095.33C2190.93 1097.7 2191.8 1099.49 2193.55 1100.7C2195.3 1101.89 2197.52 1102.49 2200.23 1102.49ZM2255.78 1110.07C2251.03 1110.07 2246.94 1108.99 2243.51 1106.84C2240.1 1104.66 2237.48 1101.67 2235.65 1097.86C2233.82 1094.04 2232.9 1089.68 2232.9 1084.75C2232.9 1079.77 2233.84 1075.37 2235.71 1071.55C2237.59 1067.72 2240.23 1064.73 2243.64 1062.57C2247.05 1060.42 2251.06 1059.35 2255.69 1059.35C2259.42 1059.35 2262.74 1060.04 2265.66 1061.42C2268.58 1062.79 2270.93 1064.7 2272.72 1067.18C2274.53 1069.65 2275.61 1072.53 2275.95 1075.84H2266.65C2266.14 1073.54 2264.97 1071.55 2263.13 1069.89C2261.32 1068.23 2258.89 1067.4 2255.85 1067.4C2253.18 1067.4 2250.85 1068.1 2248.85 1069.51C2246.87 1070.89 2245.32 1072.87 2244.21 1075.45C2243.11 1078.01 2242.55 1081.04 2242.55 1084.53C2242.55 1088.11 2243.1 1091.2 2244.18 1093.8C2245.27 1096.4 2246.8 1098.41 2248.78 1099.84C2250.79 1101.27 2253.14 1101.98 2255.85 1101.98C2257.66 1101.98 2259.3 1101.65 2260.77 1100.99C2262.26 1100.31 2263.51 1099.34 2264.51 1098.08C2265.53 1096.82 2266.25 1095.31 2266.65 1093.54H2275.95C2275.61 1096.72 2274.58 1099.55 2272.85 1102.04C2271.12 1104.54 2268.81 1106.5 2265.92 1107.92C2263.04 1109.35 2259.66 1110.07 2255.78 1110.07ZM2309.09 1059.98V1067.65H2282.27V1059.98H2309.09ZM2289.46 1048.22H2299.02V1094.66C2299.02 1096.51 2299.3 1097.91 2299.85 1098.85C2300.4 1099.76 2301.12 1100.39 2301.99 1100.73C2302.89 1101.05 2303.85 1101.21 2304.9 1101.21C2305.67 1101.21 2306.34 1101.16 2306.91 1101.05C2307.49 1100.95 2307.93 1100.86 2308.25 1100.8L2309.98 1108.69C2309.43 1108.9 2308.64 1109.12 2307.62 1109.33C2306.59 1109.57 2305.31 1109.69 2303.78 1109.71C2301.27 1109.76 2298.92 1109.31 2296.75 1108.37C2294.58 1107.43 2292.82 1105.99 2291.48 1104.03C2290.13 1102.07 2289.46 1099.6 2289.46 1096.64V1048.22ZM2319.66 1109.08V1059.98H2329.21V1109.08H2319.66ZM2324.48 1052.41C2322.82 1052.41 2321.39 1051.86 2320.2 1050.75C2319.03 1049.62 2318.44 1048.28 2318.44 1046.72C2318.44 1045.14 2319.03 1043.8 2320.2 1042.69C2321.39 1041.56 2322.82 1041 2324.48 1041C2326.14 1041 2327.56 1041.56 2328.73 1042.69C2329.93 1043.8 2330.52 1045.14 2330.52 1046.72C2330.52 1048.28 2329.93 1049.62 2328.73 1050.75C2327.56 1051.86 2326.14 1052.41 2324.48 1052.41ZM2362.75 1110.07C2358 1110.07 2353.9 1108.99 2350.47 1106.84C2347.06 1104.66 2344.44 1101.67 2342.61 1097.86C2340.78 1094.04 2339.86 1089.68 2339.86 1084.75C2339.86 1079.77 2340.8 1075.37 2342.68 1071.55C2344.55 1067.72 2347.19 1064.73 2350.6 1062.57C2354.01 1060.42 2358.03 1059.35 2362.65 1059.35C2366.38 1059.35 2369.7 1060.04 2372.62 1061.42C2375.54 1062.79 2377.9 1064.7 2379.69 1067.18C2381.5 1069.65 2382.57 1072.53 2382.91 1075.84H2373.61C2373.1 1073.54 2371.93 1071.55 2370.1 1069.89C2368.29 1068.23 2365.86 1067.4 2362.81 1067.4C2360.15 1067.4 2357.81 1068.1 2355.81 1069.51C2353.83 1070.89 2352.29 1072.87 2351.18 1075.45C2350.07 1078.01 2349.52 1081.04 2349.52 1084.53C2349.52 1088.11 2350.06 1091.2 2351.15 1093.8C2352.23 1096.4 2353.77 1098.41 2355.75 1099.84C2357.75 1101.27 2360.1 1101.98 2362.81 1101.98C2364.62 1101.98 2366.26 1101.65 2367.73 1100.99C2369.22 1100.31 2370.47 1099.34 2371.47 1098.08C2372.49 1096.82 2373.21 1095.31 2373.61 1093.54H2382.91C2382.57 1096.72 2381.54 1099.55 2379.81 1102.04C2378.09 1104.54 2375.78 1106.5 2372.88 1107.92C2370 1109.35 2366.62 1110.07 2362.75 1110.07ZM2414.29 1110.07C2409.45 1110.07 2405.29 1109.03 2401.79 1106.97C2398.32 1104.88 2395.64 1101.95 2393.74 1098.18C2391.87 1094.38 2390.93 1089.94 2390.93 1084.85C2390.93 1079.82 2391.87 1075.39 2393.74 1071.55C2395.64 1067.72 2398.28 1064.73 2401.67 1062.57C2405.08 1060.42 2409.06 1059.35 2413.62 1059.35C2416.39 1059.35 2419.07 1059.8 2421.67 1060.72C2424.27 1061.64 2426.61 1063.07 2428.67 1065.03C2430.74 1066.99 2432.37 1069.54 2433.56 1072.67C2434.76 1075.78 2435.35 1079.57 2435.35 1084.02V1087.41H2396.33V1080.25H2425.99C2425.99 1077.73 2425.48 1075.51 2424.45 1073.57C2423.43 1071.61 2421.99 1070.06 2420.14 1068.93C2418.31 1067.8 2416.15 1067.24 2413.68 1067.24C2411 1067.24 2408.65 1067.9 2406.65 1069.22C2404.67 1070.52 2403.14 1072.23 2402.05 1074.33C2400.98 1076.42 2400.45 1078.69 2400.45 1081.14V1086.74C2400.45 1090.02 2401.03 1092.81 2402.18 1095.11C2403.35 1097.41 2404.98 1099.17 2407.07 1100.38C2409.16 1101.58 2411.6 1102.17 2414.39 1102.17C2416.2 1102.17 2417.85 1101.92 2419.34 1101.4C2420.83 1100.87 2422.12 1100.08 2423.21 1099.04C2424.29 1098 2425.13 1096.71 2425.7 1095.17L2434.75 1096.8C2434.02 1099.47 2432.72 1101.8 2430.85 1103.8C2428.99 1105.78 2426.66 1107.33 2423.85 1108.44C2421.06 1109.52 2417.87 1110.07 2414.29 1110.07Z" fill="white"/>
<rect x="3567" y="1132" width="164" height="199" rx="18" stroke="white" stroke-width="4"/>
<rect x="3597" y="1178" width="104" height="52" rx="8" stroke="white" stroke-width="4"/>
<rect x="3795" y="1132" width="164" height="199" rx="18" stroke="white" stroke-width="4"/>
<rect x="3825" y="1178" width="104" height="52" rx="8" stroke="white" stroke-width="4"/>
<rect x="4023" y="1132" width="164" height="199" rx="18" stroke="white" stroke-width="4"/>
<rect x="4053" y="1178" width="104" height="52" rx="8" stroke="white" stroke-width="4"/>
<rect x="3567" y="828" width="164" height="199" rx="18" stroke="white" stroke-width="4"/>
<rect x="3597" y="874" width="104" height="52" rx="8" stroke="white" stroke-width="4"/>
<line x1="749.985" y1="951" x2="3564.98" y2="942.358" stroke="white" stroke-width="10"/>
<line x1="380" y1="330" x2="380" y2="403" stroke="white" stroke-width="10"/>
<path d="M749 1200.64L3594.92 1198.95" stroke="white" stroke-width="10"/>
<rect x="3567" y="486" width="164" height="199" rx="18" stroke="white" stroke-width="4"/>
<rect x="3597" y="532" width="104" height="52" rx="8" stroke="white" stroke-width="4"/>
<rect x="3795" y="486" width="164" height="199" rx="18" stroke="white" stroke-width="4"/>
<rect x="3825" y="532" width="104" height="52" rx="8" stroke="white" stroke-width="4"/>
<rect x="4023" y="486" width="164" height="199" rx="18" stroke="white" stroke-width="4"/>
<rect x="4053" y="532" width="104" height="52" rx="8" stroke="white" stroke-width="4"/>
<line x1="750" y1="509" x2="1096" y2="509" stroke="white" stroke-width="10"/>
<path d="M3174 509H3502" stroke="white" stroke-width="10"/>
<line x1="2131" y1="645" x2="2131" y2="733" stroke="white" stroke-width="10"/>
<line x1="380" y1="728" x2="380" y2="783" stroke="white" stroke-width="10"/>
<line x1="380" y1="1108" x2="380" y2="1163" stroke="white" stroke-width="10"/>
</svg>
