<svg width="384" height="100" viewBox="0 0 384 100" fill="none" xmlns="http://www.w3.org/2000/svg">
<circle cx="50" cy="50" r="45" stroke="#374151" stroke-width="10"/>
<path d="M23 68V32.4627H33.7584V38.9871H34.1517C34.892 36.8278 36.1414 35.1234 37.8998 33.874C39.6581 32.6247 41.7558 32 44.1928 32C46.6607 32 48.7738 32.6324 50.5321 33.8972C52.2905 35.162 53.4088 36.8586 53.8869 38.9871H54.2571C54.9203 36.874 56.2158 35.1851 58.1439 33.9203C60.0721 32.6401 62.3472 32 64.9692 32C68.3317 32 71.0616 33.0797 73.1594 35.2391C75.257 37.383 76.306 40.329 76.306 44.0771V68H64.9924V46.6684C64.9924 44.8946 64.5373 43.545 63.6271 42.6195C62.7173 41.6787 61.5374 41.2082 60.0874 41.2082C58.5296 41.2082 57.3035 41.7172 56.4086 42.7352C55.5296 43.7378 55.09 45.0874 55.09 46.7841V68H44.216V46.5527C44.216 44.9023 43.7687 43.599 42.874 42.6427C41.9794 41.6864 40.7995 41.2082 39.3342 41.2082C38.3471 41.2082 37.4756 41.4473 36.7198 41.9255C35.964 42.3882 35.3702 43.0514 34.9383 43.9152C34.5218 44.7789 34.3136 45.7969 34.3136 46.9691V68H23Z" fill="#374151"/>
<path d="M126.079 70C122.754 70 119.884 69.3447 117.47 68.0339C115.07 66.7097 113.221 64.8266 111.924 62.3847C110.641 59.9291 110 57.0115 110 53.6316C110 50.3483 110.648 47.4788 111.945 45.0232C113.242 42.5538 115.07 40.6363 117.429 39.2705C119.788 37.891 122.568 37.2012 125.768 37.2012C128.031 37.2012 130.1 37.553 131.976 38.2566C133.852 38.9602 135.473 40.0017 136.839 41.3812C138.205 42.7608 139.267 44.4645 140.026 46.4924C140.784 48.5066 141.164 50.8173 141.164 53.4247V55.9492H113.539V50.0724H131.749C131.735 48.9963 131.48 48.0376 130.983 47.196C130.486 46.3545 129.803 45.6992 128.934 45.2302C128.079 44.7473 127.093 44.5059 125.975 44.5059C124.844 44.5059 123.83 44.7611 122.933 45.2716C122.037 45.7682 121.326 46.4511 120.802 47.3202C120.278 48.1755 120.002 49.1481 119.974 50.2379V56.2182C119.974 57.515 120.229 58.6531 120.74 59.6325C121.25 60.5984 121.974 61.3501 122.913 61.8882C123.851 62.4261 124.968 62.6953 126.265 62.6953C127.162 62.6953 127.975 62.5709 128.707 62.3227C129.438 62.0744 130.065 61.7088 130.59 61.226C131.114 60.7432 131.507 60.15 131.769 59.4464L141.06 59.7153C140.674 61.7985 139.826 63.6125 138.515 65.1576C137.218 66.689 135.515 67.8824 133.404 68.7375C131.293 69.5793 128.851 70 126.079 70ZM176.792 37.6151V45.0646H156.741V37.6151H176.792ZM160.941 30H171.06V59.405C171.06 60.0259 171.157 60.5293 171.35 60.9157C171.557 61.288 171.854 61.557 172.24 61.7228C172.626 61.8743 173.088 61.9503 173.626 61.9503C174.013 61.9503 174.42 61.9156 174.847 61.8469C175.289 61.7641 175.62 61.6951 175.841 61.6397L177.372 68.9447C176.889 69.0825 176.206 69.255 175.323 69.4619C174.454 69.6687 173.412 69.7998 172.199 69.8549C169.826 69.9653 167.791 69.6894 166.094 69.0274C164.411 68.3515 163.121 67.3029 162.224 65.8819C161.341 64.461 160.914 62.6746 160.941 60.5224V30ZM209.332 70C206.008 70 203.138 69.3447 200.724 68.0339C198.324 66.7097 196.475 64.8266 195.178 62.3847C193.895 59.9291 193.254 57.0115 193.254 53.6316C193.254 50.3483 193.902 47.4788 195.199 45.0232C196.496 42.5538 198.324 40.6363 200.683 39.2705C203.042 37.891 205.822 37.2012 209.022 37.2012C211.285 37.2012 213.354 37.553 215.23 38.2566C217.106 38.9602 218.727 40.0017 220.093 41.3812C221.459 42.7608 222.521 44.4645 223.28 46.4924C224.038 48.5066 224.418 50.8173 224.418 53.4247V55.9492H196.792V50.0724H215.002C214.989 48.9963 214.733 48.0376 214.237 47.196C213.74 46.3545 213.057 45.6992 212.188 45.2302C211.333 44.7473 210.346 44.5059 209.229 44.5059C208.098 44.5059 207.084 44.7611 206.187 45.2716C205.29 45.7682 204.58 46.4511 204.056 47.3202C203.531 48.1755 203.256 49.1481 203.228 50.2379V56.2182C203.228 57.515 203.483 58.6531 203.994 59.6325C204.504 60.5984 205.228 61.3501 206.166 61.8882C207.104 62.4261 208.222 62.6953 209.519 62.6953C210.415 62.6953 211.229 62.5709 211.96 62.3227C212.691 62.0744 213.319 61.7088 213.844 61.226C214.368 60.7432 214.761 60.15 215.023 59.4464L224.314 59.7153C223.928 61.7985 223.08 63.6125 221.769 65.1576C220.472 66.689 218.768 67.8824 216.658 68.7375C214.547 69.5793 212.105 70 209.332 70ZM250.714 37.6151L255.949 48.0858L261.37 37.6151H271.572L262.695 53.5074L271.903 69.3998H261.784L255.949 58.8463L250.258 69.3998H239.995L249.224 53.5074L240.45 37.6151H250.714ZM297.672 69.9379C295.644 69.9379 293.843 69.6 292.271 68.9237C290.712 68.2341 289.477 67.1994 288.567 65.8199C287.67 64.4266 287.222 62.6813 287.222 60.5844C287.222 58.8187 287.532 57.3288 288.153 56.1148C288.773 54.9008 289.629 53.9144 290.719 53.1557C291.809 52.3969 293.064 51.8244 294.485 51.4381C295.906 51.0381 297.423 50.7691 299.037 50.6311C300.844 50.4655 302.3 50.2931 303.403 50.1138C304.507 49.9206 305.307 49.6516 305.804 49.3067C306.314 48.9481 306.57 48.4445 306.57 47.7961V47.6927C306.57 46.6304 306.204 45.8096 305.473 45.2302C304.742 44.6508 303.755 44.3611 302.514 44.3611C301.176 44.3611 300.099 44.6508 299.286 45.2302C298.472 45.8096 297.954 46.6097 297.734 47.6306L288.401 47.2995C288.677 45.3681 289.387 43.6437 290.532 42.1262C291.691 40.5949 293.278 39.3947 295.292 38.5256C297.32 37.6427 299.755 37.2012 302.596 37.2012C304.625 37.2012 306.494 37.4426 308.204 37.9255C309.915 38.3945 311.405 39.0843 312.674 39.9948C313.943 40.8915 314.923 41.9951 315.613 43.3057C316.316 44.6163 316.668 46.1131 316.668 47.7961V69.3998H307.149V64.9714H306.901C306.335 66.0474 305.611 66.9579 304.728 67.7029C303.859 68.4479 302.831 69.0068 301.645 69.3791C300.472 69.7515 299.148 69.9379 297.672 69.9379ZM300.796 63.3159C301.886 63.3159 302.866 63.0954 303.735 62.6539C304.618 62.2122 305.321 61.6053 305.845 60.8329C306.37 60.0466 306.632 59.1361 306.632 58.1013V55.0801C306.342 55.2319 305.99 55.3698 305.576 55.494C305.176 55.6182 304.735 55.7354 304.252 55.8458C303.769 55.9561 303.273 56.0527 302.762 56.1355C302.252 56.2182 301.762 56.2941 301.293 56.3631C300.341 56.5148 299.527 56.7494 298.851 57.0667C298.189 57.384 297.679 57.7978 297.32 58.3083C296.975 58.8049 296.802 59.398 296.802 60.0879C296.802 61.1362 297.175 61.9363 297.92 62.4882C298.678 63.04 299.637 63.3159 300.796 63.3159ZM335.374 69.3998V37.6151H344.997V43.4506H345.349C346.011 41.5192 347.128 39.9948 348.701 38.8774C350.274 37.7599 352.15 37.2012 354.329 37.2012C356.537 37.2012 358.427 37.7668 360 38.8981C361.572 40.0293 362.572 41.5468 363 43.4506H363.331C363.924 41.5606 365.083 40.05 366.807 38.9188C368.532 37.7737 370.567 37.2012 372.912 37.2012C375.919 37.2012 378.361 38.1669 380.237 40.0983C382.113 42.0158 383.052 44.6508 383.052 48.0031V69.3998H372.933V50.3207C372.933 48.7342 372.526 47.5271 371.712 46.6994C370.898 45.8579 369.843 45.4371 368.546 45.4371C367.152 45.4371 366.055 45.8924 365.255 46.8029C364.469 47.6995 364.076 48.9067 364.076 50.4242V69.3998H354.35V50.2172C354.35 48.7411 353.95 47.5754 353.15 46.7201C352.35 45.8648 351.295 45.4371 349.984 45.4371C349.101 45.4371 348.322 45.6509 347.646 46.0786C346.97 46.4924 346.438 47.0857 346.052 47.8582C345.68 48.6308 345.494 49.5413 345.494 50.5897V69.3998H335.374Z" fill="#374151"/>
</svg>
