<svg width="1080" height="1080" viewBox="0 0 1080 1080" fill="none" xmlns="http://www.w3.org/2000/svg" baseProfile="tiny" version="1.2">
  <title>MetExam Logo</title>
  <desc>Logo for MetExam</desc>
<circle cx="540" cy="540" r="540" fill="white"/>
<circle cx="540" cy="540" r="510" stroke="#374151" stroke-width="60"/>
<path d="M248.4 734.405V350.603H364.59V421.067H368.838C376.834 397.745 390.327 379.338 409.317 365.845C428.307 352.352 450.962 345.605 477.282 345.605C503.935 345.605 526.757 352.435 545.747 366.095C564.737 379.755 576.814 398.078 581.978 421.067H585.976C593.139 398.245 607.13 380.004 627.955 366.345C648.779 352.519 673.35 345.605 701.668 345.605C737.982 345.605 767.465 357.266 790.122 380.587C812.776 403.742 824.104 435.559 824.104 476.038V734.405H701.917V504.024C701.917 484.867 697.003 470.291 687.173 460.297C677.346 450.135 664.604 445.054 648.944 445.054C632.12 445.054 618.878 450.552 609.213 461.546C599.719 472.373 594.971 486.949 594.971 505.273V734.405H477.532V502.775C477.532 484.95 472.701 470.874 463.039 460.546C453.378 450.218 440.634 445.054 424.809 445.054C414.148 445.054 404.736 447.636 396.574 452.8C388.411 457.798 381.998 464.961 377.333 474.289C372.836 483.618 370.587 494.612 370.587 507.272V734.405H248.4Z" fill="#374151"/>
</svg>

