<svg width="800" height="800" viewBox="0 0 800 800" fill="none" xmlns="http://www.w3.org/2000/svg">
<circle cx="400" cy="400" r="365" stroke="#374151" stroke-width="70"/>
<path d="M184 544.004V259.706H270.067V311.901H273.213C279.136 294.626 289.131 280.991 303.198 270.996C317.265 261.001 334.046 256.004 353.542 256.004C373.285 256.004 390.19 261.063 404.257 271.181C418.324 281.3 427.27 294.873 431.095 311.901H434.057C439.362 294.996 449.726 281.485 465.152 271.366C480.577 261.125 498.778 256.004 519.754 256.004C546.654 256.004 568.493 264.641 585.276 281.916C602.056 299.068 610.448 322.636 610.448 352.621V544.004H519.939V373.351C519.939 359.161 516.298 348.364 509.017 340.96C501.738 333.433 492.299 329.67 480.699 329.67C468.237 329.67 458.428 333.742 451.269 341.886C444.237 349.906 440.72 360.703 440.72 374.277V544.004H353.728V372.425C353.728 359.222 350.149 348.796 342.992 341.145C335.835 333.495 326.396 329.67 314.674 329.67C306.776 329.67 299.805 331.582 293.758 335.408C287.712 339.109 282.961 344.415 279.506 351.325C276.175 358.235 274.509 366.379 274.509 375.757V544.004H184Z" fill="#374151"/>
</svg>
